<?xml version="1.0" encoding="iso-8859-1"?>
<!-- Generator: Adobe Illustrator 19.0.0, SVG Export Plug-In . SVG Version: 6.00 Build 0)  -->
<svg version="1.1" id="Capa_1" xmlns="http://www.w3.org/2000/svg" xmlns:xlink="http://www.w3.org/1999/xlink" x="0px" y="0px"
	 viewBox="0 0 512 512" style="enable-background:new 0 0 512 512;" xml:space="preserve">
<g>
	<g>
		<path d="M512,307.2V204.8l-61.44-15.36c-2.56-7.68-5.12-15.36-10.24-23.04l33.28-56.32L401.92,38.4L345.6,71.68
			c-7.68-2.56-15.36-7.68-23.04-10.24L307.2,0H204.8l-15.36,61.44c-7.68,5.12-15.36,7.68-23.04,10.24L110.08,38.4L38.4,110.08
			l33.28,56.32c-2.56,7.68-7.68,15.36-10.24,23.04L0,204.8v102.4l61.44,15.36c2.56,7.68,5.12,15.36,10.24,23.04L38.4,401.92
			l71.68,71.68l56.32-33.28c7.68,2.56,15.36,7.68,23.04,10.24L204.8,512h102.4l15.36-61.44c7.68-2.56,15.36-5.12,23.04-10.24
			l56.32,33.28l71.68-71.68l-33.28-56.32c2.56-7.68,7.68-15.36,10.24-23.04L512,307.2z M256,332.8c-43.52,0-76.8-33.28-76.8-76.8
			s33.28-76.8,76.8-76.8s76.8,33.28,76.8,76.8S299.52,332.8,256,332.8z"/>
	</g>
</g>
<g>
</g>
<g>
</g>
<g>
</g>
<g>
</g>
<g>
</g>
<g>
</g>
<g>
</g>
<g>
</g>
<g>
</g>
<g>
</g>
<g>
</g>
<g>
</g>
<g>
</g>
<g>
</g>
<g>
</g>
</svg>
