<svg xmlns="http://www.w3.org/2000/svg" width="126.446" height="21.322" viewBox="0 0 126.446 21.322">
  <g id="star_2" transform="translate(-4597.777 -3421.719)">
    <path id="ic_grade_24px" d="M12,17.27,18.18,21l-1.64-7.03L22,9.24l-7.19-.61L12,2,9.19,8.63,2,9.24l5.46,4.73L5.82,21Z" transform="translate(4597 3421)" fill="#e8aa00" stroke="rgba(0,0,0,0.3)" stroke-width="1"/>
    <path id="ic_grade_24px-2" data-name="ic_grade_24px" d="M12,17.27,18.18,21l-1.64-7.03L22,9.24l-7.19-.61L12,2,9.19,8.63,2,9.24l5.46,4.73L5.82,21Z" transform="translate(4623 3421)" fill="#e8aa00" stroke="rgba(0,0,0,0.3)" stroke-width="1"/>
    <path id="ic_grade_24px-3" data-name="ic_grade_24px" d="M12,17.27,18.18,21l-1.64-7.03L22,9.24l-7.19-.61L12,2,9.19,8.63,2,9.24l5.46,4.73L5.82,21Z" transform="translate(4649 3421)" fill="#e6e6e6" stroke="rgba(0,0,0,0.3)" stroke-width="1"/>
    <path id="ic_grade_24px-4" data-name="ic_grade_24px" d="M12,17.27,18.18,21l-1.64-7.03L22,9.24l-7.19-.61L12,2,9.19,8.63,2,9.24l5.46,4.73L5.82,21Z" transform="translate(4675 3421)" fill="#e6e6e6" stroke="rgba(0,0,0,0.3)" stroke-width="1"/>
    <path id="ic_grade_24px-5" data-name="ic_grade_24px" d="M12,17.27,18.18,21l-1.64-7.03L22,9.24l-7.19-.61L12,2,9.19,8.63,2,9.24l5.46,4.73L5.82,21Z" transform="translate(4701 3421)" fill="#e6e6e6" stroke="rgba(0,0,0,0.3)" stroke-width="1"/>
  </g>
</svg>
