<svg xmlns="http://www.w3.org/2000/svg" width="20" height="20.255" viewBox="0 0 20 20.255">
  <g id="add_remark" transform="translate(-5045 -6017)">
    <path id="Path_698" data-name="Path 698" d="M78.891,60c5.523,0,10,3.786,10,8.457a8.01,8.01,0,0,1-3.64,6.527v5.272l-5.359-3.384q-.494.041-1,.042c-5.523,0-10-3.786-10-8.457S73.368,60,78.891,60Zm0,0" transform="translate(4976.109 5957)" fill="#4a7aff"/>
    <path id="Path_699" data-name="Path 699" d="M266,60V76.914c-5.523,0-10-3.786-10-8.457S260.477,60,266,60Zm0,0" transform="translate(4789 5957)" fill="#0053bf"/>
    <path id="Path_700" data-name="Path 700" d="M144.361,256H131v1.6h13.361Zm0,0" transform="translate(4917.319 5771.475)" fill="#fff"/>
    <path id="Path_701" data-name="Path 701" d="M144.361,200H131v1.6h13.361Zm0,0" transform="translate(4917.319 5824.482)" fill="#fff"/>
    <path id="Path_702" data-name="Path 702" d="M144.361,144H131v1.6h13.361Zm0,0" transform="translate(4917.319 5877.489)" fill="#fff"/>
    <path id="Path_703" data-name="Path 703" d="M262.681,256H256v1.6h6.681Zm0,0" transform="translate(4792.319 5771.476)" fill="#dce1eb"/>
    <path id="Path_704" data-name="Path 704" d="M262.681,200H256v1.6h6.681Zm0,0" transform="translate(4792.319 5824.482)" fill="#dce1eb"/>
    <path id="Path_705" data-name="Path 705" d="M262.681,144H256v1.6h6.681Zm0,0" transform="translate(4792.319 5877.489)" fill="#dce1eb"/>
  </g>
</svg>
