<svg xmlns="http://www.w3.org/2000/svg" width="20" height="22.871" viewBox="0 0 20 22.871">
  <g id="change_status" transform="translate(-5045 -5969)">
    <path id="Path_674" data-name="Path 674" d="M16.505,4.322l-3.8-3.8A1.535,1.535,0,0,0,11.636,0c-.553,0-1.111.442-1.111,1.429V2.473A11.281,11.281,0,0,0,.006,12.347a.67.67,0,0,0,1.206.477,9.453,9.453,0,0,1,9.314-3.733v1.15a1.748,1.748,0,0,0,.217.91,1.03,1.03,0,0,0,.895.518,1.536,1.536,0,0,0,1.071-.525l3.8-3.8a2.141,2.141,0,0,0,0-3.025Zm0,0" transform="translate(5045 5969)" fill="#00d8e0"/>
    <path id="Path_675" data-name="Path 675" d="M80.959,218.814a.67.67,0,0,0-.787.227,9.453,9.453,0,0,1-9.314,3.733v-1.15c0-.987-.558-1.429-1.111-1.429a1.535,1.535,0,0,0-1.071.525l-3.8,3.8a2.141,2.141,0,0,0,0,3.025l3.8,3.8a1.535,1.535,0,0,0,1.071.525c.553,0,1.111-.442,1.111-1.429v-1.044a11.281,11.281,0,0,0,10.519-9.874.67.67,0,0,0-.418-.7Zm0,0" transform="translate(4983.618 5760.005)" fill="#54e360"/>
    <path id="Path_676" data-name="Path 676" d="M224.391,10.241a1.748,1.748,0,0,0,.217.91,1.03,1.03,0,0,0,.895.518,1.536,1.536,0,0,0,1.071-.525l3.8-3.8a2.141,2.141,0,0,0,0-3.025l-3.8-3.8A1.535,1.535,0,0,0,225.5,0c-.553,0-1.111.442-1.111,1.429V2.473q-.264.016-.524.044v6.5c.175.022.35.047.524.079Zm0,0" transform="translate(4831.133 5969)" fill="#00acb3"/>
    <path id="Path_677" data-name="Path 677" d="M233.444,218.814a.67.67,0,0,0-.787.227,9.445,9.445,0,0,1-8.789,3.812v6.5a11.281,11.281,0,0,0,10-9.83.67.67,0,0,0-.418-.7Zm0,0" transform="translate(4831.133 5760.005)" fill="#00ab5e"/>
  </g>
</svg>
