<svg xmlns="http://www.w3.org/2000/svg" xmlns:xlink="http://www.w3.org/1999/xlink" width="20" height="26.667" viewBox="0 0 20 26.667">
  <defs>
    <linearGradient id="linear-gradient" x1="-0.28" y1="1.245" x2="-0.229" y2="1.227" gradientUnits="objectBoundingBox">
      <stop offset="0" stop-color="#fff" stop-opacity="0.2"/>
      <stop offset="1" stop-color="#fff" stop-opacity="0"/>
    </linearGradient>
  </defs>
  <g id="close_complaint" transform="translate(-5045 -6197)">
    <path id="Path_689" data-name="Path 689" d="M83.444,10H81.778V7.778a7.778,7.778,0,1,0-15.556,0V10H64.556a.555.555,0,0,0-.556.556V24.444a2.224,2.224,0,0,0,2.222,2.222H81.778A2.224,2.224,0,0,0,84,24.444V10.556A.555.555,0,0,0,83.444,10Zm-5,0H69.556V7.778a4.444,4.444,0,0,1,8.889,0Z" transform="translate(4981 6197)" fill="#303c42"/>
    <path id="Path_690" data-name="Path 690" d="M128,28a6.667,6.667,0,0,1,13.333,0v2.222h-1.111V28a5.556,5.556,0,0,0-11.111,0v2.222H128Z" transform="translate(4920.333 6176.778)" fill="#f2f2f2"/>
    <path id="Path_691" data-name="Path 691" d="M103.112,226.666A1.113,1.113,0,0,1,102,227.777H86.445a1.113,1.113,0,0,1-1.111-1.111V213.333h17.778Z" transform="translate(4960.777 5994.778)" fill="#ffca28"/>
    <path id="Path_692" data-name="Path 692" d="M87.555,226.666V213.333H85.333v13.333a1.113,1.113,0,0,0,1.111,1.111h1.944C87.929,227.777,87.555,227.279,87.555,226.666Z" transform="translate(4960.778 5994.778)" fill="#fff" opacity="0.2"/>
    <path id="Path_693" data-name="Path 693" d="M368.833,213.333v13.333c0,.613-.374,1.111-.833,1.111h1.944a1.113,1.113,0,0,0,1.111-1.111V213.333Z" transform="translate(4692.833 5994.778)" opacity="0.1"/>
    <path id="Path_694" data-name="Path 694" d="M214.242,281.342l-.35,3.152a.556.556,0,0,0,.552.617h2.222a.556.556,0,0,0,.552-.617l-.35-3.152a2.2,2.2,0,0,0,.909-1.787,2.222,2.222,0,0,0-4.444,0A2.2,2.2,0,0,0,214.242,281.342Z" transform="translate(4839.445 5934.111)" fill="#303c42"/>
    <path id="Path_695" data-name="Path 695" d="M235.779,298.667a1.107,1.107,0,0,1,.48,2.107.556.556,0,0,0-.31.562l.321,2.887h-.981l.321-2.887a.556.556,0,0,0-.31-.562,1.107,1.107,0,0,1,.48-2.107Z" transform="translate(4819.221 5913.889)" fill="#5c6671"/>
    <path id="Path_696" data-name="Path 696" d="M235.346,300.819a1.083,1.083,0,0,1-.124-.486,1.113,1.113,0,0,1,1.111-1.111,1.1,1.1,0,0,1,.454.1,1.108,1.108,0,1,0-1.489,1.45C235.318,300.783,235.327,300.806,235.346,300.819Z" transform="translate(4819.223 5913.89)" opacity="0.1"/>
    <path id="Path_697" data-name="Path 697" d="M247.382,347.344l-.129-1.161c-.037-.032-.059-.076-.1-.1a1.134,1.134,0,0,1-.287-.2.534.534,0,0,1,.042.21l-.321,2.887h.617Z" transform="translate(4807.927 5869.134)" opacity="0.1"/>
    <path id="Path_698" data-name="Path 698" d="M83.444,10H81.778V7.778a7.778,7.778,0,1,0-15.556,0V10H64.556a.555.555,0,0,0-.556.556V24.444a2.224,2.224,0,0,0,2.222,2.222H81.778A2.224,2.224,0,0,0,84,24.444V10.556A.555.555,0,0,0,83.444,10Zm-5,0H69.556V7.778a4.444,4.444,0,0,1,8.889,0Z" transform="translate(4981 6197)" fill="url(#linear-gradient)"/>
  </g>
</svg>
