<svg xmlns="http://www.w3.org/2000/svg" width="50" height="50" viewBox="0 0 50 50">
  <g id="customer" transform="translate(0 0)">
    <path id="Path_933" data-name="Path 933" d="M84.292,101.84v38.59H66.238V114.192a4.935,4.935,0,0,1,2.677-4.4l4.826-2.5Zm0,0" transform="translate(-59.769 -91.895)" fill="#1b6aa6"/>
    <path id="Path_934" data-name="Path 934" d="M153.621,101.84v38.59H143.07V107.3Zm0,0" transform="translate(-129.098 -91.895)" fill="#173755"/>
    <path id="Path_935" data-name="Path 935" d="M131,420.754v6.124h-2.93v-6.124a1.465,1.465,0,0,1,2.93,0Zm0,0" transform="translate(-115.563 -378.343)" fill="#fff49c"/>
    <g id="Group_3521" data-name="Group 3521" transform="translate(6.469 24.244)">
      <path id="Path_936" data-name="Path 936" d="M76.73,360.637a1.465,1.465,0,0,1-1.465,1.465H66.238v-2.93h9.027A1.465,1.465,0,0,1,76.73,360.637Zm0,0" transform="translate(-66.238 -348.341)" fill="#d9eeff"/>
      <path id="Path_937" data-name="Path 937" d="M76.73,305.574a1.465,1.465,0,0,1-1.465,1.465H66.238v-2.93h9.027A1.464,1.464,0,0,1,76.73,305.574Zm0,0" transform="translate(-66.238 -298.655)" fill="#d9eeff"/>
      <path id="Path_938" data-name="Path 938" d="M76.73,249.727a1.465,1.465,0,0,1-1.465,1.465H66.238v-2.93h9.027A1.464,1.464,0,0,1,76.73,249.727Zm0,0" transform="translate(-66.238 -248.262)" fill="#d9eeff"/>
    </g>
    <path id="Path_939" data-name="Path 939" d="M144.535,420.754v6.124H143.07v-7.589A1.464,1.464,0,0,1,144.535,420.754Zm0,0" transform="translate(-129.098 -378.343)" fill="#fee276"/>
    <path id="Path_940" data-name="Path 940" d="M146.059,360.637a1.465,1.465,0,0,1-1.465,1.465H143.07v-2.93h1.524A1.465,1.465,0,0,1,146.059,360.637Zm0,0" transform="translate(-129.099 -324.097)" fill="#b0e3fc"/>
    <path id="Path_941" data-name="Path 941" d="M146.059,305.574a1.465,1.465,0,0,1-1.465,1.465H143.07v-2.93h1.524A1.464,1.464,0,0,1,146.059,305.574Zm0,0" transform="translate(-129.099 -274.411)" fill="#b0e3fc"/>
    <path id="Path_942" data-name="Path 942" d="M144.594,251.192H143.07v-2.93h1.524a1.465,1.465,0,0,1,0,2.93Zm0,0" transform="translate(-129.099 -224.018)" fill="#b0e3fc"/>
    <path id="Path_943" data-name="Path 943" d="M243.069,27.37V65.088H221.11V18.344Zm0,0" transform="translate(-199.517 -16.553)" fill="#1b6aa6"/>
    <path id="Path_944" data-name="Path 944" d="M344.518,69.068v37.718H333.539V64.555Zm0,0" transform="translate(-300.967 -58.251)" fill="#173755"/>
    <path id="Path_945" data-name="Path 945" d="M291.469,420.754v6.124h-2.93v-6.124a1.465,1.465,0,0,1,2.93,0Zm0,0" transform="translate(-260.361 -378.343)" fill="#fff49c"/>
    <path id="Path_946" data-name="Path 946" d="M351.469,420.754v6.124h-2.93v-6.124a1.465,1.465,0,0,1,2.93,0Zm0,0" transform="translate(-314.502 -378.343)" fill="#fee276"/>
    <path id="Path_947" data-name="Path 947" d="M289.77,254.157a1.465,1.465,0,0,0,1.465-1.465v-2.969a1.465,1.465,0,1,0-2.93,0v2.969A1.465,1.465,0,0,0,289.77,254.157Zm0,0" transform="translate(-260.15 -224.014)" fill="#fff"/>
    <path id="Path_948" data-name="Path 948" d="M350.035,254.157a1.465,1.465,0,0,0,1.465-1.465v-2.969a1.465,1.465,0,1,0-2.93,0v2.969A1.465,1.465,0,0,0,350.035,254.157Zm0,0" transform="translate(-314.53 -224.014)" fill="#d9eeff"/>
    <path id="Path_949" data-name="Path 949" d="M289.973,334.657a1.465,1.465,0,0,0,1.465-1.465v-2.969a1.465,1.465,0,0,0-2.93,0v2.969A1.465,1.465,0,0,0,289.973,334.657Zm0,0" transform="translate(-260.333 -296.653)" fill="#fff"/>
    <path id="Path_950" data-name="Path 950" d="M350.235,328.758a1.465,1.465,0,0,0-1.465,1.465v2.969a1.465,1.465,0,0,0,2.93,0v-2.969A1.465,1.465,0,0,0,350.235,328.758Zm0,0" transform="translate(-314.71 -296.653)" fill="#d9eeff"/>
    <path id="Path_951" data-name="Path 951" d="M289.871,173.927a1.465,1.465,0,0,0,1.465-1.465v-2.969a1.465,1.465,0,0,0-2.93,0v2.969A1.465,1.465,0,0,0,289.871,173.927Zm0,0" transform="translate(-260.241 -151.619)" fill="#fff"/>
    <path id="Path_952" data-name="Path 952" d="M350.137,173.927a1.465,1.465,0,0,0,1.465-1.465v-2.969a1.465,1.465,0,0,0-2.93,0v2.969A1.465,1.465,0,0,0,350.137,173.927Zm0,0" transform="translate(-314.622 -151.619)" fill="#d9eeff"/>
    <path id="Path_953" data-name="Path 953" d="M347.947,108.767a1.464,1.464,0,0,1-1.912.8l-12.5-5.136v-3.167l13.61,5.593a1.466,1.466,0,0,1,.8,1.912Zm0,0" transform="translate(-300.967 -91.373)" fill="#368bb2"/>
    <path id="Path_954" data-name="Path 954" d="M346.035,57.5l-12.5-5.137V49.2l13.61,5.594a1.465,1.465,0,1,1-1.114,2.71Zm0,0" transform="translate(-300.967 -44.394)" fill="#368bb2"/>
    <path id="Path_955" data-name="Path 955" d="M243.068,27.37v5.39l-10.979-4.514-10.979-4.513V18.344Zm0,0" transform="translate(-199.516 -16.553)" fill="#fff49c"/>
    <path id="Path_956" data-name="Path 956" d="M344.518,69.068v5.39l-10.979-4.514V64.555Zm0,0" transform="translate(-300.967 -58.251)" fill="#fee276"/>
    <path id="Path_957" data-name="Path 957" d="M223.731,12.31a1.465,1.465,0,0,1-1.912.8l-1.517-.623L209.323,7.972,198.343,3.459l-1.556-.64A1.465,1.465,0,0,1,197.9.11l.442.182L209.323,4.8,220.3,9.317l2.631,1.081a1.465,1.465,0,0,1,.8,1.912Zm0,0" transform="translate(-176.751 0)" fill="#d9eeff"/>
    <path id="Path_958" data-name="Path 958" d="M223.731,64.37a1.464,1.464,0,0,1-1.912.8l-1.517-.623-10.979-4.514-10.979-4.513-1.556-.64A1.464,1.464,0,1,1,197.9,52.17l.442.182,10.979,4.513L220.3,61.377l2.631,1.081a1.466,1.466,0,0,1,.8,1.912Zm0,0" transform="translate(-176.751 -46.976)" fill="#d9eeff"/>
    <path id="Path_959" data-name="Path 959" d="M50,483.465a1.465,1.465,0,0,1-1.465,1.465H1.465a1.465,1.465,0,0,1,0-2.93h47.07A1.465,1.465,0,0,1,50,483.465Zm0,0" transform="translate(0 -434.93)" fill="#00db7e"/>
    <path id="Path_960" data-name="Path 960" d="M281,483.465a1.465,1.465,0,0,1-1.465,1.465H256V482h23.535A1.465,1.465,0,0,1,281,483.465Zm0,0" transform="translate(-231 -434.93)" fill="#00a863"/>
    <path id="Path_961" data-name="Path 961" d="M347.947,108.767a1.464,1.464,0,0,1-1.912.8l-12.5-5.136v-3.167l13.61,5.593a1.466,1.466,0,0,1,.8,1.912Zm0,0" transform="translate(-300.967 -91.373)" fill="#b0e3fc"/>
    <path id="Path_962" data-name="Path 962" d="M346.035,57.5l-12.5-5.137V49.2l13.61,5.594a1.465,1.465,0,1,1-1.114,2.71Zm0,0" transform="translate(-300.967 -44.394)" fill="#b0e3fc"/>
  </g>
</svg>
