<svg xmlns="http://www.w3.org/2000/svg" width="20.927" height="20" viewBox="0 0 20.927 20">
  <g id="customer_sign" transform="translate(0 -0.567)">
    <path id="Path_1073" data-name="Path 1073" d="M15.314,8.2l3.153,1.158L15.845,16.5c-.245.671-1.576,2.773-2.5,3.2l-.225.613a.386.386,0,0,1-.361.253.4.4,0,0,1-.132-.024.385.385,0,0,1-.228-.494l.213-.58c-.47-.914-.119-3.567.087-4.128ZM19.877.649A1.833,1.833,0,0,0,17.7,1.78l-1.9,5.174L18.957,8.11l1.9-5.173A2.011,2.011,0,0,0,19.877.649Zm-5.7,7.286a.768.768,0,0,0,.989-.454l2-5.4a.769.769,0,0,0-1.443-.534l-2,5.4A.768.768,0,0,0,14.172,7.935ZM10.946,18.069a2.99,2.99,0,0,0-.882-.625,2.3,2.3,0,0,0-.923-.166l-.084,0a1.2,1.2,0,0,0-.928-.785,1.878,1.878,0,0,0-1.448.384c.03-.172.08-.376.117-.523a3.373,3.373,0,0,0,.149-1.425.82.82,0,0,0-.748-.659,3.97,3.97,0,0,0-2.418.923c-.721.487-1.183.777-1.642.613-.561-.2-.617-1.718-.348-3.071.241-1.219.69-3.487,1.841-4.518.388-.347.949-.722,1.41-.54a2.606,2.606,0,0,1,1.09,2.17.818.818,0,1,0,1.628-.153A4.02,4.02,0,0,0,5.641,6.152,2.9,2.9,0,0,0,2.541,7C1.1,8.285.571,10.47.186,12.415c-.193.972-.663,4.2,1.4,4.931a3.367,3.367,0,0,0,3.1-.8c.15-.1.3-.2.442-.29a2.186,2.186,0,0,0,.137,1.763c.534.8,1.289.891,2.243.263.037-.024.079-.052.119-.079a1.11,1.11,0,0,0,.528.528,2.162,2.162,0,0,0,.937.183,1.3,1.3,0,0,1,.3.025,1.42,1.42,0,0,1,.421.318,5.2,5.2,0,0,0,.45.389.818.818,0,0,0,.98-1.309A3.864,3.864,0,0,1,10.946,18.069Z" fill="#030104"/>
  </g>
</svg>
