<svg xmlns="http://www.w3.org/2000/svg" width="19.998" height="20" viewBox="0 0 19.998 20">
  <g id="expenses" transform="translate(-0.019 0)">
    <g id="Group_3549" data-name="Group 3549" transform="translate(0.019 0)">
      <g id="Group_3548" data-name="Group 3548" transform="translate(0 0)">
        <path id="Path_1020" data-name="Path 1020" d="M63.006,313.186a5.835,5.835,0,0,1-1.534-1.106,5.723,5.723,0,0,1-.864-1.1.37.37,0,1,0-.642.37l.007.011a6.465,6.465,0,0,0,.975,1.242,6.568,6.568,0,0,0,1.729,1.246.37.37,0,0,0,.329-.664Z" transform="translate(-57.144 -296.408)" fill="#002341"/>
        <path id="Path_1021" data-name="Path 1021" d="M138.239,152.187a1.481,1.481,0,0,1-1.481-1.481h-.741a2.224,2.224,0,0,0,1.852,2.189v.774h.741v-.774a2.222,2.222,0,0,0-.37-4.411A1.481,1.481,0,1,1,139.72,147h.741a2.224,2.224,0,0,0-1.852-2.189v-.774h-.741v.774a2.222,2.222,0,0,0,.37,4.411,1.481,1.481,0,1,1,0,2.963Z" transform="translate(-129.721 -137.372)" fill="#002341"/>
        <path id="Path_1022" data-name="Path 1022" d="M320.557,72.313a.371.371,0,1,0-.472.573,7.865,7.865,0,0,1,1.07,1.071.37.37,0,1,0,.573-.47A8.618,8.618,0,0,0,320.557,72.313Z" transform="translate(-305.139 -68.885)" fill="#002341"/>
        <path id="Path_1023" data-name="Path 1023" d="M41.995,105.951a6.666,6.666,0,0,0-1.7,6.555.37.37,0,0,0,.713-.2,5.923,5.923,0,0,1,9.881-5.821q.211.211.4.436a5.9,5.9,0,0,1-.2,7.735l-.017.017-.007.007-.013.013c-.05.057-.1.114-.162.172a5.925,5.925,0,0,1-5.337,1.621.37.37,0,1,0-.144.727,6.666,6.666,0,0,0,6.007-1.823c.058-.058.111-.116.165-.174l.027-.027a6.666,6.666,0,0,0-9.613-9.234Z" transform="translate(-38.184 -99.189)" fill="#002341"/>
        <path id="Path_1024" data-name="Path 1024" d="M285.841,146.224Z" transform="translate(-272.61 -139.455)" fill="#002341"/>
        <path id="Path_1025" data-name="Path 1025" d="M11.5,0A8.518,8.518,0,0,0,4.777,3.288,8.321,8.321,0,0,0,3.3,4.764,8.518,8.518,0,1,0,15.256,16.718a8.494,8.494,0,0,0,1.481-1.485A8.516,8.516,0,0,0,11.5,0Zm3.767,15.384A7.78,7.78,0,1,1,3.791,5.32a7.934,7.934,0,0,1,.844-.568A7.783,7.783,0,0,1,15.269,15.384Zm2.125-9.647a.37.37,0,0,0-.656.343l.016.027a7.769,7.769,0,0,1-.095,7.934A8.51,8.51,0,0,0,5.974,3.362a7.688,7.688,0,0,1,4.044-1.138,7.766,7.766,0,0,1,3.923,1.06.37.37,0,0,0,.373-.639A8.522,8.522,0,0,0,7.44,1.883a7.777,7.777,0,0,1,10.7,10.682A8.516,8.516,0,0,0,17.394,5.738Z" transform="translate(-0.019 0)" fill="#002341"/>
      </g>
    </g>
  </g>
</svg>
