<svg xmlns="http://www.w3.org/2000/svg" width="20" height="17.5" viewBox="0 0 20 17.5">
  <g id="export_service_report" transform="translate(-5045 -6110)">
    <path id="Path_799" data-name="Path 799" d="M13.75,77.752H2.5V66.5H6.25V64h-5A1.25,1.25,0,0,0,0,65.252V79a1.25,1.25,0,0,0,1.25,1.25H15A1.249,1.249,0,0,0,16.25,79V72.791h-2.5Z" transform="translate(5045 6047.248)" fill="#607d8b"/>
    <path id="Path_800" data-name="Path 800" d="M142.75,35.874l-5-3.75a.625.625,0,0,0-1,.5V34.5h-1.875A6.882,6.882,0,0,0,128,41.374a.625.625,0,0,0,1.184.28l.148-.294a5.594,5.594,0,0,1,5.031-3.111h2.387v1.875a.625.625,0,0,0,1,.5l5-3.75a.625.625,0,0,0,0-1Z" transform="translate(4922 6078.001)" fill="#2196f3"/>
  </g>
</svg>
