<svg xmlns="http://www.w3.org/2000/svg" width="20" height="19.978" viewBox="0 0 20 19.978">
  <g id="feedback" transform="translate(0 -0.277)">
    <g id="Group_27" data-name="Group 27" transform="translate(0.333 0.61)">
      <path id="Path_353" data-name="Path 353" d="M8.059,7.67H20.046a.666.666,0,0,1,.666.666v17.98a.666.666,0,0,1-.666.666H8.059a.666.666,0,0,1-.666-.666V8.336A.666.666,0,0,1,8.059,7.67Z" transform="translate(-7.393 -7.67)" fill="#ffb301"/>
      <path id="Path_354" data-name="Path 354" d="M8.059,7.67H19.047a.666.666,0,0,1,.666.666v17.98a.666.666,0,0,1-.666.666H8.059a.666.666,0,0,1-.666-.666V8.336A.666.666,0,0,1,8.059,7.67Z" transform="translate(-7.393 -7.67)" fill="#fec108"/>
      <path id="Path_355" data-name="Path 355" d="M59.167,368.956l-1.413,3.3,3.3-1.413.367-.585-1.665-1.665Z" transform="translate(-55.756 -354.271)" fill="#ffecb3"/>
      <path id="Path_356" data-name="Path 356" d="M108.522,44.556l-13.3,13.3-1.885-1.885,13.3-13.3,1.052,1.052Z" transform="translate(-89.932 -41.283)" fill="#fdd834"/>
      <path id="Path_357" data-name="Path 357" d="M107.69,43.723l-1.831,1.831L94.394,57.019l-1.052-1.052,13.3-13.3Z" transform="translate(-89.932 -41.283)" fill="#ffeb3a"/>
      <rect id="Rectangle_1851" data-name="Rectangle 1851" width="1.436" height="1.177" transform="translate(17.774 4.088) rotate(135)" fill="#9e9e9e"/>
      <rect id="Rectangle_1852" data-name="Rectangle 1852" width="1.436" height="1.488" transform="translate(16.941 3.256) rotate(135)" fill="#f5f5f5"/>
      <path id="Path_358" data-name="Path 358" d="M410.988,26.041l-1.175,1.175-.819-.819-1.065-1.065,1.175-1.175a1.333,1.333,0,1,1,1.885,1.885Z" transform="translate(-392.039 -23.128)" fill="#ad1457"/>
      <path id="Path_359" data-name="Path 359" d="M410.169,25.223,408.993,26.4l-1.065-1.065,1.175-1.175a1.336,1.336,0,0,1,1.382-.316A1.336,1.336,0,0,1,410.169,25.223Z" transform="translate(-392.039 -23.129)" fill="#e91e63"/>
    </g>
    <g id="Group_28" data-name="Group 28" transform="translate(0 0.277)">
      <path id="Path_360" data-name="Path 360" d="M1,20.255H12.986a1,1,0,0,0,1-1V11.265a.333.333,0,1,0-.666,0v7.991a.333.333,0,0,1-.333.333H1a.333.333,0,0,1-.333-.333V1.276A.333.333,0,0,1,1,.943H12.986a.333.333,0,0,1,.333.333v2a.333.333,0,0,0,.666,0v-2a1,1,0,0,0-1-1H1a1,1,0,0,0-1,1v17.98A1,1,0,0,0,1,20.255Z" transform="translate(0 -0.277)"/>
      <path id="Path_361" data-name="Path 361" d="M65.527,16.985l-2.192,2.192L51.871,30.641s0,.007-.007.01a.33.33,0,0,0-.063.094l0,.006-1.41,3.29a.333.333,0,0,0,.306.464.329.329,0,0,0,.131-.027l3.29-1.41.006,0A.323.323,0,0,0,54.215,33s.007,0,.01-.007L65.689,21.533l2.192-2.192a1.665,1.665,0,0,0-2.354-2.354Zm-.073,3.84-1.412-1.412.544-.544L66,20.282Zm-1.883-.942L64.983,21.3,53.99,32.289l-1.413-1.413ZM51.326,33.54l.891-2.079,1.188,1.188ZM67.409,18.87l-.942.942L65.056,18.4l.942-.94a1,1,0,1,1,1.413,1.413Z" transform="translate(-48.363 -15.86)"/>
      <path id="Path_362" data-name="Path 362" d="M75.472,75.818H67.481a.333.333,0,0,0,0,.666h7.991a.333.333,0,0,0,0-.666Z" transform="translate(-64.484 -72.821)"/>
      <path id="Path_363" data-name="Path 363" d="M75.805,126.512a.333.333,0,0,0-.333-.333H67.481a.333.333,0,0,0,0,.666h7.991A.333.333,0,0,0,75.805,126.512Z" transform="translate(-64.484 -121.184)"/>
      <path id="Path_364" data-name="Path 364" d="M67.481,176.539a.333.333,0,0,0,0,.666h5.993a.333.333,0,0,0,0-.666Z" transform="translate(-64.484 -169.547)"/>
    </g>
  </g>
</svg>
