<svg xmlns="http://www.w3.org/2000/svg" width="20" height="20" viewBox="0 0 20 20">
  <g id="my_profile" transform="translate(-0.001 0)">
    <path id="Path_395" data-name="Path 395" d="M256,97.5v12.383A6.191,6.191,0,0,0,256,97.5Zm0,0" transform="translate(-245.999 -93.691)" fill="#adf5ff"/>
    <path id="Path_396" data-name="Path 396" d="M108.711,103.691c0-3.419-2.247-6.191-5.02-6.191a6.191,6.191,0,0,0,0,12.383C106.464,109.883,108.711,107.111,108.711,103.691Zm0,0" transform="translate(-93.691 -93.691)" fill="#d6faff"/>
    <path id="Path_397" data-name="Path 397" d="M256,127.5l2.857,8.381h.87A5.019,5.019,0,0,0,256,127.5Zm0,0" transform="translate(-245.999 -122.519)" fill="#d6faff"/>
    <path id="Path_398" data-name="Path 398" d="M132.52,127.5a5.019,5.019,0,0,0-3.728,8.381h6.585a5.932,5.932,0,0,0,.99-3.361c0-2.772-1.723-5.02-3.848-5.02Zm0,0" transform="translate(-122.519 -122.519)" fill="#fff"/>
    <path id="Path_399" data-name="Path 399" d="M265.672,301H264.5l2.344,2.489a5.045,5.045,0,0,0,1.052-.886A2.344,2.344,0,0,0,265.672,301Zm0,0" transform="translate(-254.167 -289.242)" fill="#08e2ff"/>
    <path id="Path_400" data-name="Path 400" d="M164.63,301h-1.836a2.344,2.344,0,0,0-2.224,1.6,5.02,5.02,0,0,0,6.4.886v-.146A2.344,2.344,0,0,0,164.63,301Zm0,0" transform="translate(-154.297 -289.242)" fill="#5aecff"/>
    <path id="Path_401" data-name="Path 401" d="M246.391,7.5,246,8.672l.391,1.172a1.172,1.172,0,0,0,0-2.344Zm0,0" transform="translate(-236.39 -7.207)" fill="#10beff"/>
    <path id="Path_402" data-name="Path 402" d="M226,8.672a1.172,1.172,0,0,0,1.172,1.172V7.5A1.172,1.172,0,0,0,226,8.672Zm0,0" transform="translate(-217.171 -7.207)" fill="#08e2ff"/>
    <path id="Path_403" data-name="Path 403" d="M9.844,227.172A1.172,1.172,0,1,1,8.672,226,1.172,1.172,0,0,1,9.844,227.172Zm0,0" transform="translate(-7.206 -217.171)" fill="#08e2ff"/>
    <path id="Path_404" data-name="Path 404" d="M246.391,444.5,246,445.672l.391,1.172a1.172,1.172,0,0,0,0-2.344Zm0,0" transform="translate(-236.39 -427.136)" fill="#10beff"/>
    <path id="Path_405" data-name="Path 405" d="M226,445.672a1.172,1.172,0,0,0,1.172,1.172V444.5A1.172,1.172,0,0,0,226,445.672Zm0,0" transform="translate(-217.171 -427.136)" fill="#08e2ff"/>
    <path id="Path_406" data-name="Path 406" d="M446.844,227.172A1.172,1.172,0,1,1,445.672,226,1.172,1.172,0,0,1,446.844,227.172Zm0,0" transform="translate(-427.136 -217.171)" fill="#10beff"/>
    <path id="Path_407" data-name="Path 407" d="M73.84,381.676a1.172,1.172,0,1,1-1.172-1.172A1.172,1.172,0,0,1,73.84,381.676Zm0,0" transform="translate(-68.702 -365.64)" fill="#08e2ff"/>
    <path id="Path_408" data-name="Path 408" d="M382.848,72.668a1.172,1.172,0,1,1-1.172-1.172A1.172,1.172,0,0,1,382.848,72.668Zm0,0" transform="translate(-365.64 -68.703)" fill="#10beff"/>
    <path id="Path_409" data-name="Path 409" d="M73.84,72.668A1.172,1.172,0,1,1,72.668,71.5,1.172,1.172,0,0,1,73.84,72.668Zm0,0" transform="translate(-68.702 -68.703)" fill="#08e2ff"/>
    <path id="Path_410" data-name="Path 410" d="M382.848,381.676a1.172,1.172,0,1,1-1.172-1.172A1.172,1.172,0,0,1,382.848,381.676Zm0,0" transform="translate(-365.64 -365.64)" fill="#10beff"/>
    <path id="Path_411" data-name="Path 411" d="M256,157.5v4.434a1.924,1.924,0,0,0,1.924-1.924v-.586A1.924,1.924,0,0,0,256,157.5Zm0,0" transform="translate(-245.999 -151.347)" fill="#ff8c51"/>
    <path id="Path_412" data-name="Path 412" d="M209.426,160.01v-.586c0-1.062-.337-1.924-.752-1.924a1.924,1.924,0,0,0-1.924,1.924v.586a1.924,1.924,0,0,0,1.924,1.924C209.089,161.934,209.426,161.072,209.426,160.01Zm0,0" transform="translate(-198.673 -151.347)" fill="#ffb266"/>
    <path id="Path_413" data-name="Path 413" d="M18.536,8.536A1.467,1.467,0,0,0,17.1,9.707h-.622a6.46,6.46,0,0,0-1.692-4.078l.442-.442a1.464,1.464,0,1,0-.414-.414l-.442.442a6.46,6.46,0,0,0-4.078-1.692V2.9a1.465,1.465,0,1,0-.586,0v.622A6.459,6.459,0,0,0,5.63,5.215l-.442-.442a1.463,1.463,0,1,0-.414.414l.442.442A6.46,6.46,0,0,0,3.523,9.707H2.9a1.465,1.465,0,1,0,0,.586h.622a6.46,6.46,0,0,0,1.692,4.078l-.442.442a1.464,1.464,0,1,0,.414.414l.442-.442a6.459,6.459,0,0,0,4.078,1.692V17.1a1.465,1.465,0,1,0,.586,0v-.622a6.459,6.459,0,0,0,4.078-1.692l.442.442a1.463,1.463,0,1,0,.414-.414l-.442-.442a6.46,6.46,0,0,0,1.692-4.078H17.1a1.465,1.465,0,1,0,1.435-1.758ZM15.415,3.344a.879.879,0,1,1-.257.621.874.874,0,0,1,.257-.621ZM9.122,1.465A.879.879,0,1,1,10,2.344.88.88,0,0,1,9.122,1.465ZM3.344,4.587a.879.879,0,1,1,.621.257A.873.873,0,0,1,3.344,4.587ZM1.466,10.879A.879.879,0,1,1,2.345,10,.88.88,0,0,1,1.466,10.879Zm3.121,5.778a.879.879,0,1,1,.257-.621A.873.873,0,0,1,4.587,16.657Zm6.293,1.878A.879.879,0,1,1,10,17.657.88.88,0,0,1,10.88,18.536Zm5.778-3.121a.879.879,0,1,1-.621-.257.874.874,0,0,1,.621.257ZM10,15.9A5.9,5.9,0,1,1,15.9,10,5.905,5.905,0,0,1,10,15.9Zm8.535-5.02A.879.879,0,1,1,19.415,10,.88.88,0,0,1,18.536,10.879Zm0,0"/>
    <path id="Path_414" data-name="Path 414" d="M203.684,152.8v-.586a2.217,2.217,0,0,0-4.434,0v.586a2.217,2.217,0,0,0,4.434,0Zm-3.848,0v-.586a1.631,1.631,0,0,1,3.262,0v.586a1.631,1.631,0,0,1-3.262,0Zm0,0" transform="translate(-191.466 -144.14)"/>
    <path id="Path_415" data-name="Path 415" d="M125.313,120a5.257,5.257,0,0,0-3.293,1.143.293.293,0,1,0,.363.46,4.677,4.677,0,0,1,2.929-1.017,4.724,4.724,0,0,1,3.8,7.533,2.633,2.633,0,0,0-2.3-1.342h-3.008a2.633,2.633,0,0,0-2.3,1.342,4.722,4.722,0,0,1,.091-5.736.293.293,0,0,0-.46-.363,5.307,5.307,0,0,0,.2,6.82.291.291,0,0,0,.051.056,5.3,5.3,0,0,0,7.835,0,.293.293,0,0,0,.051-.057,5.309,5.309,0,0,0-3.968-8.84Zm0,10.039a4.712,4.712,0,0,1-3.388-1.434,2.048,2.048,0,0,1,1.884-1.241h3.008A2.048,2.048,0,0,1,128.7,128.6,4.712,4.712,0,0,1,125.313,130.039Zm0,0" transform="translate(-115.312 -115.312)"/>
  </g>
</svg>
