<svg id="pr_address" xmlns="http://www.w3.org/2000/svg" width="25" height="25" viewBox="0 0 25 25">
  <path id="Path_763" data-name="Path 763" d="M30.5,128H9.667A1.667,1.667,0,0,0,8,129.667V144.25a1.667,1.667,0,0,0,1.667,1.667H30.5a1.667,1.667,0,0,0,1.667-1.667V129.667A1.667,1.667,0,0,0,30.5,128ZM9.667,141.75h0Zm20,0H12.583v0h0v-2.5h-1.25v-.833a.833.833,0,0,1,.833-.833H13a.833.833,0,0,1,.833.833v.833h-1.25v2.5h3.75v-5L19.25,133h7.5l2.917,3.75Z" transform="translate(-7.583 -121.333)" fill="#f29316"/>
  <rect id="Rectangle_2073" data-name="Rectangle 2073" width="1.667" height="2.5" transform="translate(10.833 17.917)" fill="#2c83a3"/>
  <path id="Path_764" data-name="Path 764" d="M170.917,224,168,227.75h5.833Z" transform="translate(-159.25 -212.333)" fill="#fce3c3"/>
  <path id="Path_765" data-name="Path 765" d="M224,224l2.917,3.75h7.5L231.5,224Z" transform="translate(-212.333 -212.333)" fill="#b02700"/>
  <g id="Group_3251" data-name="Group 3251" transform="translate(8.75 15.417)">
    <rect id="Rectangle_2074" data-name="Rectangle 2074" width="7.5" height="5" transform="translate(5.833)" fill="#fce3c3"/>
    <path id="Path_766" data-name="Path 766" d="M168,296v5h2.083v-2.5h1.667V301h2.083v-5Z" transform="translate(-168 -296)" fill="#fce3c3"/>
  </g>
  <path id="Path_767" data-name="Path 767" d="M74.5,312.833a.833.833,0,0,0-.833-.833h-.833a.833.833,0,0,0-.833.833v.833h2.5Z" transform="translate(-68.25 -295.75)" fill="#2c83a3"/>
  <circle id="Ellipse_18" data-name="Ellipse 18" cx="0.833" cy="0.833" r="0.833" transform="translate(11.667 0.417)" fill="#fce3c3"/>
  <g id="Group_3252" data-name="Group 3252">
    <path id="Path_768" data-name="Path 768" d="M22.917,6.25H20.528L13.395,2.12a1.25,1.25,0,1,0-1.789,0L4.472,6.25H2.083A2.086,2.086,0,0,0,0,8.333V22.917A2.086,2.086,0,0,0,2.083,25H22.917A2.086,2.086,0,0,0,25,22.917V8.333A2.086,2.086,0,0,0,22.917,6.25ZM12.5.833a.417.417,0,1,1-.417.417A.417.417,0,0,1,12.5.833Zm0,1.731L18.865,6.25H6.135ZM24.167,22.917a1.252,1.252,0,0,1-1.25,1.25H2.083a1.252,1.252,0,0,1-1.25-1.25V8.333a1.252,1.252,0,0,1,1.25-1.25H22.917a1.252,1.252,0,0,1,1.25,1.25Z" fill="#3a0d03"/>
    <path id="Path_769" data-name="Path 769" d="M83.135,220.008c0-.007-.008-.012-.011-.019a.419.419,0,0,0-.045-.078l-2.917-3.75a.417.417,0,0,0-.329-.161h-7.5a.415.415,0,0,0-.321.155s-.006,0-.008.006l-2.917,3.75a.422.422,0,0,0-.045.079c0,.007-.008.012-.011.019a.417.417,0,0,0-.029.142c0,.005,0,.01,0,.015v4.583H66.083v-1.667h.833a.416.416,0,0,0,.417-.417v-.833a1.252,1.252,0,0,0-1.25-1.25H65.25a1.252,1.252,0,0,0-1.25,1.25v.833a.416.416,0,0,0,.417.417h.833v1.667h-.833v.833H82.75a.416.416,0,0,0,.417-.417v-5c0-.005,0-.01,0-.016A.419.419,0,0,0,83.135,220.008Zm-18.3,1.825a.417.417,0,0,1,.417-.417h.833a.417.417,0,0,1,.417.417v.417H64.833Zm14.8-5L81.9,219.75H75.454l-2.268-2.917Zm-7.3.262L74.4,219.75H70.269Zm-2.5,3.488h5v4.167h-1.25v-2.083a.416.416,0,0,0-.417-.417H71.5a.416.416,0,0,0-.417.417v2.083h-1.25Zm2.083,4.167v-1.667h.833v1.667Zm10.417,0H75.667v-4.167h6.667Z" transform="translate(-60.667 -204.75)" fill="#3a0d03"/>
    <rect id="Rectangle_2075" data-name="Rectangle 2075" width="0.833" height="0.833" transform="translate(2.083 20)" fill="#3a0d03"/>
  </g>
</svg>
