<svg xmlns="http://www.w3.org/2000/svg" width="25" height="25.004" viewBox="0 0 25 25.004">
  <g id="pr_call" transform="translate(-2.26 -2)">
    <path id="Path_730" data-name="Path 730" d="M15.862,9.544a.837.837,0,0,0,0-1.183L12.311,4.81a.837.837,0,0,0-1.184,0L9.352,6.585l4.734,4.735Z" transform="translate(-4.124 -1.492)" fill="#ff7956"/>
    <path id="Path_731" data-name="Path 731" d="M49.8,43.486a.837.837,0,0,0,0-1.184l-3.551-3.551a.837.837,0,0,0-1.183,0l-1.776,1.776,4.735,4.734Z" transform="translate(-23.862 -21.229)" fill="#ff7956"/>
    <path id="Path_732" data-name="Path 732" d="M10.538,14.128,5.8,9.393l-.592.592a6.7,6.7,0,0,0,0,9.469l9.469,9.469a6.7,6.7,0,0,0,9.469,0l.592-.592L20.008,23.6l-.592.592a2.511,2.511,0,0,1-3.551,0L9.947,18.271a2.511,2.511,0,0,1,0-3.551Z" transform="translate(-0.576 -4.299)" fill="#ffcd00"/>
    <path id="Path_733" data-name="Path 733" d="M43.554,4.674v6.7a1.674,1.674,0,0,1-1.674,1.674H36.859L33.511,16.81V13.043h-.837A1.674,1.674,0,0,1,31,11.37v-6.7A1.674,1.674,0,0,1,32.674,3H41.88A1.674,1.674,0,0,1,43.554,4.674Z" transform="translate(-16.713 -0.582)" fill="#d80027"/>
    <circle id="Ellipse_15" data-name="Ellipse 15" cx="0.837" cy="0.837" r="0.837" transform="translate(16.379 6.603)" fill="#ffcd00"/>
    <circle id="Ellipse_16" data-name="Ellipse 16" cx="0.837" cy="0.837" r="0.837" transform="translate(19.727 6.603)" fill="#ffcd00"/>
    <circle id="Ellipse_17" data-name="Ellipse 17" cx="0.837" cy="0.837" r="0.837" transform="translate(23.075 6.603)" fill="#ffcd00"/>
    <path id="Path_734" data-name="Path 734" d="M0,0H1.183V6.7H0Z" transform="translate(5.227 5.094) rotate(-45)" fill="#ff6243"/>
    <path id="Path_735" data-name="Path 735" d="M0,0H1.183V6.7H0Z" transform="translate(19.427 19.298) rotate(-45)" fill="#ff6243"/>
    <path id="Path_736" data-name="Path 736" d="M15.518,28.086,6.049,18.617a6.69,6.69,0,0,1-.233-9.212L5.8,9.393l-.592.592a6.7,6.7,0,0,0,0,9.469l9.469,9.469a6.7,6.7,0,0,0,9.469,0l.592-.592-.013-.012A6.69,6.69,0,0,1,15.518,28.086Z" transform="translate(-0.576 -4.299)" fill="#ddb200"/>
    <g id="Group_3249" data-name="Group 3249" transform="translate(2.26 2)">
      <path id="Path_737" data-name="Path 737" d="M22.686,18.153a1.258,1.258,0,0,0-1.776,0L18.544,20.52a2.1,2.1,0,0,1-2.959,0L9.666,14.6a2.1,2.1,0,0,1,0-2.959l2.367-2.367a1.255,1.255,0,0,0,0-1.776L8.483,3.95a1.286,1.286,0,0,0-1.775,0L4.34,6.317a7.123,7.123,0,0,0,0,10.061l9.469,9.47a7.114,7.114,0,0,0,10.061,0l2.368-2.368a1.255,1.255,0,0,0,0-1.775ZM7.3,4.541a.428.428,0,0,1,.591,0l3.552,3.552a.418.418,0,0,1,0,.591l-1.48,1.48L5.819,6.021ZM23.277,25.256a6.277,6.277,0,0,1-8.877,0l-9.468-9.47a6.285,6.285,0,0,1,0-8.877l.3-.3,4.143,4.143-.3.3a2.932,2.932,0,0,0,0,4.143l5.918,5.918a2.933,2.933,0,0,0,4.143,0l.3-.3,4.143,4.143Zm2.369-2.367-1.48,1.479-4.143-4.143,1.48-1.479a.418.418,0,0,1,.592,0L25.645,22.3a.418.418,0,0,1,0,.592Z" transform="translate(-2.26 -2.927)" fill="#231f20"/>
      <path id="Path_738" data-name="Path 738" d="M41.3,2H32.092A2.1,2.1,0,0,0,30,4.092v6.7a2.1,2.1,0,0,0,2.092,2.092h.418v3.348a.418.418,0,0,0,.731.278l3.223-3.626H41.3a2.1,2.1,0,0,0,2.092-2.092v-6.7A2.1,2.1,0,0,0,41.3,2Zm1.255,8.788A1.255,1.255,0,0,1,41.3,12.043H36.277a.419.419,0,0,0-.313.14l-2.617,2.944V12.462a.418.418,0,0,0-.418-.418h-.837a1.255,1.255,0,0,1-1.255-1.255v-6.7a1.255,1.255,0,0,1,1.255-1.255H41.3a1.255,1.255,0,0,1,1.255,1.255Z" transform="translate(-18.391 -2)" fill="#231f20"/>
      <path id="Path_739" data-name="Path 739" d="M36.255,12a1.255,1.255,0,1,0,1.255,1.255A1.255,1.255,0,0,0,36.255,12Zm0,1.674a.418.418,0,1,1,.418-.418A.418.418,0,0,1,36.255,13.674Z" transform="translate(-21.299 -7.815)" fill="#231f20"/>
      <path id="Path_740" data-name="Path 740" d="M44.255,12a1.255,1.255,0,1,0,1.255,1.255A1.255,1.255,0,0,0,44.255,12Zm0,1.674a.418.418,0,1,1,.418-.418A.418.418,0,0,1,44.255,13.674Z" transform="translate(-25.951 -7.815)" fill="#231f20"/>
      <path id="Path_741" data-name="Path 741" d="M52.255,12a1.255,1.255,0,1,0,1.255,1.255A1.255,1.255,0,0,0,52.255,12Zm0,1.674a.418.418,0,1,1,.418-.418A.418.418,0,0,1,52.255,13.674Z" transform="translate(-30.603 -7.815)" fill="#231f20"/>
    </g>
  </g>
</svg>
