<svg xmlns="http://www.w3.org/2000/svg" width="25" height="24.819" viewBox="0 0 25 24.819">
  <g id="pr_email" transform="translate(-2 -2.422)">
    <path id="Path_742" data-name="Path 742" d="M40.13,34.865l8.367,6.7a.833.833,0,0,0,.327-.657V28.375a.838.838,0,0,0-.1-.39Z" transform="translate(-22.246 -14.914)" fill="#ffcd00"/>
    <path id="Path_743" data-name="Path 743" d="M3.1,27.985a.838.838,0,0,0-.1.39V40.905a.833.833,0,0,0,.327.657l8.371-6.7Z" transform="translate(-0.583 -14.914)" fill="#ffcd00"/>
    <path id="Path_744" data-name="Path 744" d="M27.2,13.784l-8.594,6.878-2.866-2.291a.839.839,0,0,0-1.041,0l-2.862,2.291-8.6-6.878a.821.821,0,0,1,.187-.246L14.675,3.845a.833.833,0,0,1,1.091,0l11.248,9.694a.821.821,0,0,1,.187.246Z" transform="translate(-0.723 -0.711)" fill="#ffde55"/>
    <path id="Path_745" data-name="Path 745" d="M16.06,38.746a.839.839,0,0,0-1.041,0l-2.862,2.291-8.371,6.7a.824.824,0,0,0,.506.177h22.5a.824.824,0,0,0,.506-.177l-8.367-6.7Z" transform="translate(-1.041 -21.086)" fill="#ddb200"/>
    <path id="Path_746" data-name="Path 746" d="M22.781,14.925a2.083,2.083,0,1,0,1.079,4.024l2.816-.754L25.6,14.17Z" transform="translate(-11.223 -6.854)" fill="#ed1c24"/>
    <path id="Path_747" data-name="Path 747" d="M32.784,12.4l7.085.689L37.5,4.234,34.732,6.211h0l.012.008-.012-.008h0L31.706,8.373Z" transform="translate(-17.331 -1.057)" fill="#2488ff"/>
    <path id="Path_748" data-name="Path 748" d="M49.186,12.29a.417.417,0,0,0,.295-.51l-.106-.4-2.05-7.651a.417.417,0,0,0-.51-.295l-1.208.324,2.372,8.852Z" transform="translate(-25.441 -0.584)" fill="#005ece"/>
    <path id="Path_749" data-name="Path 749" d="M31.348,28.328a.833.833,0,0,0,.59-1.02l-.863-3.219-1.61.432.863,3.219A.833.833,0,0,0,31.348,28.328Z" transform="translate(-16.024 -12.64)" fill="#58595b"/>
    <path id="Path_750" data-name="Path 750" d="M57.039,27.985l-1.568,1.256v7.915a3.32,3.32,0,0,1-1.091,2.461l2.43,1.945a.833.833,0,0,0,.327-.657V28.375a.838.838,0,0,0-.1-.39Z" transform="translate(-30.56 -14.914)" fill="#ebbf00"/>
    <path id="Path_751" data-name="Path 751" d="M3,58v.417a.833.833,0,0,0,.327.657L4.668,58Z" transform="translate(-0.583 -32.425)" fill="#ebbf00"/>
    <path id="Path_752" data-name="Path 752" d="M58.566,25.981a.818.818,0,0,0-.187-.245L57,24.547v2.688Z" transform="translate(-32.088 -12.908)" fill="#ffd422"/>
    <path id="Path_753" data-name="Path 753" d="M57,29.243l1.566-1.253h0L57,29.242Z" transform="translate(-32.088 -14.916)" fill="#ffde55"/>
    <path id="Path_754" data-name="Path 754" d="M22.621,56.779H5.126L3.785,57.852a.824.824,0,0,0,.506.177h22.5a.824.824,0,0,0,.506-.177l-2.43-1.945a3.317,3.317,0,0,1-2.242.872Z" transform="translate(-1.041 -31.204)" fill="#ddb200"/>
    <g id="Group_3250" data-name="Group 3250" transform="translate(2.517 13.073)">
      <path id="Path_755" data-name="Path 755" d="M46.067,41.376a3.32,3.32,0,0,0,1.091-2.461V31L40.13,36.624Z" transform="translate(-24.762 -29.746)" fill="#ffcd00"/>
      <path id="Path_756" data-name="Path 756" d="M40.13,36.622,47.158,31h0Z" transform="translate(-24.762 -29.744)" fill="#ffcd00"/>
      <path id="Path_757" data-name="Path 757" d="M3.24,27.989l8.6,6.878-8.6-6.878Z" transform="translate(-3.24 -27.989)" fill="#ffcd00"/>
    </g>
    <path id="Path_758" data-name="Path 758" d="M17.938,38.746a.839.839,0,0,0-1.041,0l-2.862,2.291-7.03,5.624H24.5a3.318,3.318,0,0,0,2.242-.872L20.8,41.037Z" transform="translate(-2.92 -21.086)" fill="#ebbf00"/>
    <path id="Path_759" data-name="Path 759" d="M24.3,10.568,22.287,3.04a.833.833,0,0,0-1.021-.589l-1.134.3a.826.826,0,0,0-.269.125l-2.44,1.745L15.316,2.819a1.256,1.256,0,0,0-1.636,0L2.432,12.513A1.25,1.25,0,0,0,2,13.461V25.991a1.25,1.25,0,0,0,1.25,1.25h22.5a1.25,1.25,0,0,0,1.25-1.25V13.461a1.25,1.25,0,0,0-.432-.949Zm1.85,15.468-7.6-6.085,7.612-6.092V25.991a.393.393,0,0,1-.009.044Zm-23.32-.044V13.859l7.614,6.092L2.842,26.036a.375.375,0,0,1-.009-.044Zm11.4-8.005a.424.424,0,0,1,.522,0l10.527,8.422H3.71Zm7.246-14.73L23.638,11.3l-.8.215L20.677,3.472Zm-7.4,4.573.862,3.219-2.416.647a1.667,1.667,0,0,1-.862-3.221Zm.676,4.132.755,2.817a.416.416,0,0,1-.8.215l-.755-2.816Zm1.025-1-.929-3.466L19.92,3.865l2.061,7.691ZM14.225,3.449a.417.417,0,0,1,.547,0l1.954,1.674-2.532,1.81-2.645.708A2.568,2.568,0,0,0,9.634,10.51a2.5,2.5,0,0,0,3.11,1.986l.4-.107.744,2.776a1.307,1.307,0,0,0,.4.667,1.253,1.253,0,0,0,1.993-.536,1.309,1.309,0,0,0,.015-.779l-.735-2.746,6.854.667a.825.825,0,0,0,.3-.024l1.135-.3a.827.827,0,0,0,.507-.392l1.516,1.3-7.993,6.4-2.606-2.085a1.25,1.25,0,0,0-1.561,0l-2.6,2.083-8-6.4Z"/>
    <path id="Path_760" data-name="Path 760" d="M55.2,11.708a.417.417,0,0,0,.4.309A.4.4,0,0,0,55.706,12l1.61-.431a.417.417,0,1,0-.216-.8l-1.61.432a.417.417,0,0,0-.295.51Z" transform="translate(-31.027 -4.86)"/>
    <path id="Path_761" data-name="Path 761" d="M53.459,5.333a.417.417,0,0,0,.295-.122l1.178-1.178a.417.417,0,1,0-.589-.589L53.164,4.622a.417.417,0,0,0,.295.711Z" transform="translate(-29.779 -0.525)"/>
    <path id="Path_762" data-name="Path 762" d="M56.162,18.049a.417.417,0,0,0,.295.51l1.61.431a.4.4,0,0,0,.108.015.417.417,0,0,0,.108-.819l-1.61-.432A.417.417,0,0,0,56.162,18.049Z" transform="translate(-31.591 -8.937)"/>
  </g>
</svg>
