<svg xmlns="http://www.w3.org/2000/svg" width="35" height="35" viewBox="0 0 35 35">
  <g id="request_call_icon" transform="translate(-2.259 -2.28)">
    <path id="Path_853" data-name="Path 853" d="M18.509,11.569a1.177,1.177,0,0,0,0-1.665L13.514,4.91a1.177,1.177,0,0,0-1.665,0l-2.5,2.5,6.659,6.66Z" transform="translate(-2.918 -0.94)" fill="#ff7956"/>
    <path id="Path_854" data-name="Path 854" d="M0,0H1.665V9.418H0Z" transform="translate(6.432 6.467) rotate(-45)" fill="#ff6243"/>
    <path id="Path_855" data-name="Path 855" d="M52.45,45.511a1.177,1.177,0,0,0,0-1.665l-4.994-4.994a1.177,1.177,0,0,0-1.665,0l-2.5,2.5,6.66,6.659Z" transform="translate(-16.881 -14.903)" fill="#ff7956"/>
    <path id="Path_856" data-name="Path 856" d="M0,0H1.665V9.418H0Z" transform="translate(26.407 26.445) rotate(-45)" fill="#ff6243"/>
    <path id="Path_857" data-name="Path 857" d="M19.329,36.863a9.418,9.418,0,0,0,13.319,0l.833-.832-6.66-6.659-.832.832a3.532,3.532,0,0,1-5,0L12.669,21.88a3.532,3.532,0,0,1,0-5l.832-.832L6.843,9.393l-.832.833a9.418,9.418,0,0,0,0,13.319Z" transform="translate(-0.408 -2.926)" fill="#ffcd00"/>
    <path id="Path_858" data-name="Path 858" d="M20.506,35.686,7.187,22.367A9.41,9.41,0,0,1,6.86,9.411l-.017-.018-.832.833a9.418,9.418,0,0,0,0,13.319L19.329,36.863a9.418,9.418,0,0,0,13.319,0l.833-.832-.018-.017a9.41,9.41,0,0,1-12.957-.328Z" transform="translate(-0.408 -2.926)" fill="#ddb200"/>
    <circle id="Ellipse_20" data-name="Ellipse 20" cx="2.354" cy="2.354" r="2.354" transform="translate(19.765 15.065)" fill="#006df0"/>
    <g id="Group_3504" data-name="Group 3504" transform="translate(2.259 2.28)">
      <path id="Path_859" data-name="Path 859" d="M30.991,24.061a1.766,1.766,0,0,0-2.5,0l-3.33,3.33a2.943,2.943,0,0,1-4.162,0l-8.325-8.324a2.943,2.943,0,0,1,0-4.162l3.33-3.33a1.766,1.766,0,0,0,0-2.5l-4.994-5a1.766,1.766,0,0,0-2.5,0L5.185,7.412a10.018,10.018,0,0,0,0,14.151L18.5,34.882a10.018,10.018,0,0,0,14.151,0l3.33-3.33a1.766,1.766,0,0,0,0-2.5ZM9.347,4.915a.589.589,0,0,1,.833,0l4.994,4.994a.589.589,0,0,1,0,.832l-2.081,2.081L10.179,9.909,7.266,7ZM31.822,34.051a8.829,8.829,0,0,1-12.486,0L6.018,20.731a8.829,8.829,0,0,1,0-12.486l.416-.416,2.914,2.913,2.913,2.914-.416.416a4.12,4.12,0,0,0,0,5.827l8.325,8.324a4.12,4.12,0,0,0,5.826,0l.417-.416,2.914,2.913,2.913,2.914Zm3.33-3.33L33.071,32.8l-2.913-2.914-2.914-2.914,2.081-2.081a.589.589,0,0,1,.832,0l4.994,4.994a.589.589,0,0,1,0,.833Z" transform="translate(-2.259 -2.808)" fill="#231f20"/>
      <path id="Path_860" data-name="Path 860" d="M35.669,2.285a.589.589,0,0,0-.16,1.167A16.49,16.49,0,0,1,49.556,17.5a.589.589,0,0,0,.583.509A.624.624,0,0,0,50.219,18a.589.589,0,0,0,.5-.663A17.673,17.673,0,0,0,35.669,2.285Z" transform="translate(-15.728 -2.28)" fill="#231f20"/>
      <path id="Path_861" data-name="Path 861" d="M35.487,9.528A12.95,12.95,0,0,1,45.981,20.022a.589.589,0,0,0,.579.487.6.6,0,0,0,.1-.009.589.589,0,0,0,.479-.681A14.13,14.13,0,0,0,35.69,8.369a.589.589,0,1,0-.2,1.16Z" transform="translate(-15.728 -4.781)" fill="#231f20"/>
      <path id="Path_862" data-name="Path 862" d="M35.45,15.641a9.494,9.494,0,0,1,6.936,6.936A.589.589,0,1,0,43.53,22.3a10.68,10.68,0,0,0-7.8-7.8.589.589,0,0,0-.277,1.144Z" transform="translate(-15.728 -7.299)" fill="#231f20"/>
      <path id="Path_863" data-name="Path 863" d="M33.943,28.886A2.943,2.943,0,1,0,31,25.943,2.943,2.943,0,0,0,33.943,28.886Zm0-4.709a1.766,1.766,0,1,1-1.766,1.766A1.766,1.766,0,0,1,33.943,24.177Z" transform="translate(-14.083 -10.804)" fill="#231f20"/>
    </g>
  </g>
</svg>
