<svg xmlns="http://www.w3.org/2000/svg" width="20" height="20" viewBox="0 0 20 20">
  <g id="spare_parts" transform="translate(-5045 -5925)">
    <path id="Path_425" data-name="Path 425" d="M272.4,11.415l.806-.806-1.414-1.414-.806.807a3.633,3.633,0,0,0-.786-.325V8.535h-2V9.677a3.638,3.638,0,0,0-.786.324l-.806-.806-1.414,1.414.807.806a3.642,3.642,0,0,0-.325.786h-1.142v2h1.142a3.631,3.631,0,0,0,.324.786l-.806.806,1.414,1.414.806-.807a3.639,3.639,0,0,0,.786.325v1.142h2V16.727a3.638,3.638,0,0,0,.786-.324l.806.806,1.414-1.414-.807-.806a3.638,3.638,0,0,0,.325-.786h1.142v-2h-1.142A3.639,3.639,0,0,0,272.4,11.415Zm-3.2,3.453a1.667,1.667,0,1,1,1.667-1.667A1.667,1.667,0,0,1,269.2,14.868Zm0,0" transform="translate(4790.802 5916.798)" fill="#ffe477"/>
    <path id="Path_426" data-name="Path 426" d="M344.665,87A1.667,1.667,0,1,1,343,85.332,1.667,1.667,0,0,1,344.665,87Zm0,0" transform="translate(4717.001 5843.001)" fill="#ff9811"/>
    <path id="Path_427" data-name="Path 427" d="M13.2,187.2v-1.077a2.982,2.982,0,0,0,.928-.385l.762.762.943-.943-.762-.762a2.981,2.981,0,0,0,.385-.928h1.077v-1.333H15.458a2.978,2.978,0,0,0-.385-.928l.762-.762-.943-.943-.762.762a2.984,2.984,0,0,0-.928-.385V179.2H11.868v1.077a2.984,2.984,0,0,0-.928.385l-.762-.762-.943.943L10,181.6a2.978,2.978,0,0,0-.385.928H8.535v1.333H9.612a2.981,2.981,0,0,0,.385.928l-.762.762.943.943.762-.762a2.983,2.983,0,0,0,.928.385V187.2Zm-2-4a1.333,1.333,0,1,1,1.333,1.333A1.333,1.333,0,0,1,11.2,183.2Zm0,0" transform="translate(5036.798 5752.801)" fill="#1e81ce"/>
    <path id="Path_428" data-name="Path 428" d="M79.467,248.8a1.333,1.333,0,1,1-1.333-1.333A1.333,1.333,0,0,1,79.467,248.8Zm0,0" transform="translate(4971.199 5687.201)" fill="#ff9811"/>
    <path id="Path_429" data-name="Path 429" d="M236.937,301.073l.762-.762-.943-.943-.762.762a2.981,2.981,0,0,0-.928-.385v-1.077h-1.333v1.077a2.978,2.978,0,0,0-.928.385l-.762-.762-.943.943.762.762a2.981,2.981,0,0,0-.385.928H230.4v1.333h1.077a2.982,2.982,0,0,0,.385.928l-.762.762.943.943.762-.762a2.974,2.974,0,0,0,.928.385v1.077h1.333v-1.077a2.981,2.981,0,0,0,.928-.385l.762.762.943-.943-.762-.762a2.983,2.983,0,0,0,.385-.928H238.4V302h-1.077A2.981,2.981,0,0,0,236.937,301.073ZM234.4,304a1.333,1.333,0,1,1,1.333-1.333A1.333,1.333,0,0,1,234.4,304Zm0,0" transform="translate(4823.601 5637.999)" fill="#ff7956"/>
    <path id="Path_430" data-name="Path 430" d="M301.335,368.267A1.333,1.333,0,1,1,300,366.933,1.333,1.333,0,0,1,301.335,368.267Zm0,0" transform="translate(4757.998 5572.4)" fill="#ff9811"/>
    <path id="Path_431" data-name="Path 431" d="M265.667,3.667h-.9a4.045,4.045,0,0,0-.161-.39l.633-.633a.333.333,0,0,0,0-.471L263.828.757a.334.334,0,0,0-.471,0l-.633.633a4,4,0,0,0-.39-.16v-.9A.333.333,0,0,0,262,0h-2a.333.333,0,0,0-.333.333v.9a4.029,4.029,0,0,0-.39.161l-.633-.633a.333.333,0,0,0-.471,0l-1.415,1.413a.333.333,0,0,0,0,.471l.633.633a4,4,0,0,0-.16.39h-.9A.333.333,0,0,0,256,4V6a.333.333,0,0,0,.333.333h.9a4.029,4.029,0,0,0,.161.39l-.633.633a.333.333,0,0,0,0,.471l1.414,1.414a.333.333,0,0,0,.471,0l.633-.633a4.037,4.037,0,0,0,.389.16v.9A.333.333,0,0,0,260,10h2a.333.333,0,0,0,.333-.333v-.9a4.029,4.029,0,0,0,.39-.161l.633.633a.333.333,0,0,0,.471,0l1.414-1.414a.334.334,0,0,0,0-.471l-.633-.633a4.078,4.078,0,0,0,.16-.389h.9A.333.333,0,0,0,266,6V4a.333.333,0,0,0-.333-.333Zm-.333,2h-.808a.333.333,0,0,0-.321.243,3.324,3.324,0,0,1-.295.714.333.333,0,0,0,.055.4l.57.571-.943.943-.571-.57a.333.333,0,0,0-.4-.055,3.314,3.314,0,0,1-.714.295.333.333,0,0,0-.243.321v.807h-1.332V8.525a.333.333,0,0,0-.243-.321,3.316,3.316,0,0,1-.714-.295.333.333,0,0,0-.4.055l-.571.57-.943-.943.57-.571a.333.333,0,0,0,.055-.4,3.316,3.316,0,0,1-.295-.714.333.333,0,0,0-.319-.241h-.808V4.333h.808a.333.333,0,0,0,.321-.243,3.314,3.314,0,0,1,.295-.714.333.333,0,0,0-.055-.4l-.57-.569.943-.943.571.57a.333.333,0,0,0,.4.055,3.316,3.316,0,0,1,.714-.295.333.333,0,0,0,.241-.321V.667h1.333v.808a.333.333,0,0,0,.243.321,3.314,3.314,0,0,1,.714.295.333.333,0,0,0,.4-.055l.571-.57.943.943-.57.571a.333.333,0,0,0-.055.4,3.316,3.316,0,0,1,.295.714.334.334,0,0,0,.321.243h.807Zm0,0" transform="translate(4799 5925)" fill="#3e3d42"/>
    <path id="Path_432" data-name="Path 432" d="M334.8,76.8a2,2,0,1,0,2,2A2,2,0,0,0,334.8,76.8Zm0,3.333a1.333,1.333,0,1,1,1.333-1.333A1.333,1.333,0,0,1,334.8,80.134Zm0,0" transform="translate(4725.199 5851.199)" fill="#3e3d42"/>
    <path id="Path_433" data-name="Path 433" d="M8.666,174.334A.333.333,0,0,0,8.333,174H7.511a3.263,3.263,0,0,0-.224-.54l.582-.582a.333.333,0,0,0,0-.471l-.943-.943a.333.333,0,0,0-.471,0l-.582.582a3.284,3.284,0,0,0-.54-.224V171A.333.333,0,0,0,5,170.668H3.666a.333.333,0,0,0-.333.333v.822a3.289,3.289,0,0,0-.54.224l-.582-.582a.333.333,0,0,0-.471,0l-.943.943a.334.334,0,0,0,0,.471l.582.582a3.258,3.258,0,0,0-.224.54H.333a.333.333,0,0,0-.333.333v1.333A.333.333,0,0,0,.333,176h.822a3.258,3.258,0,0,0,.224.54l-.582.582a.333.333,0,0,0,0,.471l.943.943a.333.333,0,0,0,.471,0l.582-.582a3.256,3.256,0,0,0,.54.224V179a.333.333,0,0,0,.333.333H5A.333.333,0,0,0,5.333,179v-.822a3.256,3.256,0,0,0,.54-.224l.582.582a.333.333,0,0,0,.471,0l.943-.943a.333.333,0,0,0,0-.471l-.582-.582a3.258,3.258,0,0,0,.224-.54h.822a.333.333,0,0,0,.333-.333Zm-.667,1H7.256a.334.334,0,0,0-.325.259,2.656,2.656,0,0,1-.342.825.333.333,0,0,0,.046.413l.526.526-.471.471-.526-.526a.333.333,0,0,0-.413-.046,2.659,2.659,0,0,1-.825.344.334.334,0,0,0-.259.323v.743H4v-.743a.333.333,0,0,0-.259-.325,2.656,2.656,0,0,1-.825-.342.334.334,0,0,0-.413.046l-.526.526-.471-.471.526-.526a.333.333,0,0,0,.046-.413,2.653,2.653,0,0,1-.342-.825.334.334,0,0,0-.325-.259H.666v-.667H1.41a.333.333,0,0,0,.325-.259,2.653,2.653,0,0,1,.342-.825.334.334,0,0,0-.046-.413l-.526-.526.471-.471.526.526a.334.334,0,0,0,.413.046,2.663,2.663,0,0,1,.825-.343A.333.333,0,0,0,4,172.078v-.743h.667v.743a.333.333,0,0,0,.259.325,2.663,2.663,0,0,1,.825.343.333.333,0,0,0,.413-.046l.526-.526.471.471-.526.526a.334.334,0,0,0-.046.413,2.654,2.654,0,0,1,.344.825.333.333,0,0,0,.323.259H8Zm0,0" transform="translate(5045 5760.999)" fill="#3e3d42"/>
    <path id="Path_434" data-name="Path 434" d="M69.933,238.934A1.667,1.667,0,1,0,71.6,240.6,1.667,1.667,0,0,0,69.933,238.934Zm0,2.667a1,1,0,1,1,1-1A1,1,0,0,1,69.933,241.6Zm0,0" transform="translate(4979.401 5695.399)" fill="#3e3d42"/>
    <path id="Path_435" data-name="Path 435" d="M230.2,293.466h-.822a3.256,3.256,0,0,0-.224-.54l.582-.582a.333.333,0,0,0,0-.471l-.943-.943a.333.333,0,0,0-.471,0l-.582.582a3.284,3.284,0,0,0-.54-.224v-.822a.333.333,0,0,0-.333-.333h-1.333a.333.333,0,0,0-.333.333v.822a3.289,3.289,0,0,0-.54.224l-.582-.582a.333.333,0,0,0-.471,0l-.943.943a.333.333,0,0,0,0,.471l.582.582a3.269,3.269,0,0,0-.224.54H222.2a.333.333,0,0,0-.333.333v1.333a.333.333,0,0,0,.333.333h.822a3.289,3.289,0,0,0,.224.54l-.582.582a.333.333,0,0,0,0,.471l.943.943a.333.333,0,0,0,.471,0l.582-.582a3.258,3.258,0,0,0,.54.224v.822a.333.333,0,0,0,.333.333h1.333a.333.333,0,0,0,.333-.333v-.822a3.252,3.252,0,0,0,.54-.224l.582.582a.333.333,0,0,0,.471,0l.943-.943a.333.333,0,0,0,0-.471l-.582-.582a3.263,3.263,0,0,0,.224-.54h.822a.333.333,0,0,0,.333-.333V293.8A.333.333,0,0,0,230.2,293.466Zm-.333,1.333h-.743a.333.333,0,0,0-.325.259,2.656,2.656,0,0,1-.342.825.333.333,0,0,0,.046.413l.526.526-.471.471-.526-.526a.333.333,0,0,0-.413-.046,2.657,2.657,0,0,1-.825.344.333.333,0,0,0-.259.323v.743h-.667v-.743a.333.333,0,0,0-.259-.325,2.655,2.655,0,0,1-.825-.342.333.333,0,0,0-.413.046l-.526.526-.471-.471.526-.526a.333.333,0,0,0,.046-.413,2.655,2.655,0,0,1-.342-.825.333.333,0,0,0-.325-.259h-.743v-.667h.743a.333.333,0,0,0,.325-.259,2.656,2.656,0,0,1,.342-.825.333.333,0,0,0-.046-.413l-.526-.526.471-.471.526.526a.334.334,0,0,0,.413.046,2.663,2.663,0,0,1,.825-.343.333.333,0,0,0,.259-.325V290.8h.667v.743a.333.333,0,0,0,.259.325,2.663,2.663,0,0,1,.825.343.333.333,0,0,0,.413-.046l.526-.526.471.471-.526.526a.333.333,0,0,0-.046.413,2.656,2.656,0,0,1,.344.825.334.334,0,0,0,.323.259h.743Zm0,0" transform="translate(4831.8 5646.2)" fill="#3e3d42"/>
    <path id="Path_436" data-name="Path 436" d="M291.8,358.4a1.667,1.667,0,1,0,1.667,1.667A1.667,1.667,0,0,0,291.8,358.4Zm0,2.667a1,1,0,1,1,1-1A1,1,0,0,1,291.8,361.065Zm0,0" transform="translate(4766.2 5580.602)" fill="#3e3d42"/>
    <path id="Path_437" data-name="Path 437" d="M136.555,94.838a6.319,6.319,0,0,0-4.025,2.1.334.334,0,1,0,.5.442,5.652,5.652,0,0,1,3.6-1.875.333.333,0,0,0-.075-.663Zm0,0" transform="translate(4917.728 5833.868)" fill="#3e3d42"/>
    <path id="Path_438" data-name="Path 438" d="M81.014,47.415a.333.333,0,0,0,.272-.14,7.652,7.652,0,0,1,5.592-3.19.333.333,0,0,0-.056-.664,8.315,8.315,0,0,0-6.078,3.467.333.333,0,0,0,.271.527Zm0,0" transform="translate(4967.47 5883.275)" fill="#3e3d42"/>
  </g>
</svg>
