<svg xmlns="http://www.w3.org/2000/svg" width="20" height="20" viewBox="0 0 20 20">
  <g id="trouble_shooting" transform="translate(-2 -2)">
    <path id="Path_365" data-name="Path 365" d="M38.333,35v8.667H27V35H38.333Z" transform="translate(-16.667 -22)" fill="#ffb655"/>
    <path id="Path_366" data-name="Path 366" d="M53.667,27,55,29.667H52V27Z" transform="translate(-33.333 -16.667)" fill="#46f8ff"/>
    <path id="Path_367" data-name="Path 367" d="M52,15h1.667v4H52Z" transform="translate(-33.333 -8.667)" fill="#57a4ff"/>
    <path id="Path_368" data-name="Path 368" d="M46.666,3.35a2,2,0,0,1,0,3.767V13.9H45.333V7.117a2,2,0,0,1,0-3.767V5.233h1.333Z" transform="translate(-28 -0.9)" fill="#ffde55"/>
    <path id="Path_369" data-name="Path 369" d="M34,27h4.667v2.667H34Z" transform="translate(-21.333 -16.667)" fill="#46f8ff"/>
    <path id="Path_370" data-name="Path 370" d="M34,15h4.667v1.333H34Z" transform="translate(-21.333 -8.667)" fill="#57a4ff"/>
    <path id="Path_371" data-name="Path 371" d="M29.333,3V5H24V3Z" transform="translate(-14.667 -0.667)" fill="#ffde55"/>
    <path id="Path_372" data-name="Path 372" d="M31.333,15v2.667H30V9h1.333v6Z" transform="translate(-18.667 -4.667)" fill="#ff7956"/>
    <path id="Path_373" data-name="Path 373" d="M25.333,27v2.667h-1L23,27Z" transform="translate(-14 -16.667)" fill="#46f8ff"/>
    <path id="Path_374" data-name="Path 374" d="M18.667,15v1.333H14.333V19H13V15Z" transform="translate(-7.333 -8.667)" fill="#57a4ff"/>
    <path id="Path_375" data-name="Path 375" d="M11,29.667v8.667H3V29.667L4.333,27H9.667Z" transform="translate(-0.667 -16.667)" fill="#ff7956"/>
    <circle id="Ellipse_1" data-name="Ellipse 1" cx="1" cy="1" r="1" transform="translate(5.333 11.667)" fill="#b2fa09"/>
    <path id="Path_376" data-name="Path 376" d="M12.333,30a1.333,1.333,0,1,0,1.333,1.333A1.333,1.333,0,0,0,12.333,30Zm0,2A.667.667,0,1,1,13,31.333.667.667,0,0,1,12.333,32Z" transform="translate(-6 -18.667)"/>
    <path id="Path_377" data-name="Path 377" d="M21.967,12.851l-1.3-2.6V6.333A.333.333,0,0,0,20.333,6h-.71a2.323,2.323,0,0,0-.848-3.865.333.333,0,0,0-.443.315V4h-.667V2.45a.333.333,0,0,0-.443-.315A2.323,2.323,0,0,0,16.376,6H13V4.667h1.667A.333.333,0,0,0,15,4.333v-2A.333.333,0,0,0,14.667,2H9.333A.333.333,0,0,0,9,2.333v2a.333.333,0,0,0,.333.333H11V6H5.667a.333.333,0,0,0-.333.333V10H3.667a.333.333,0,0,0-.3.184L2.035,12.851A.333.333,0,0,0,2,13v8.667A.333.333,0,0,0,2.333,22H21.667A.333.333,0,0,0,22,21.667V13A.333.333,0,0,0,21.967,12.851Zm-.839-.184H19v-2h1.127ZM20,10H19V6.667h1ZM17,3V4.333a.333.333,0,0,0,.333.333h1.333A.333.333,0,0,0,19,4.333V3a1.665,1.665,0,0,1-.444,2.9.333.333,0,0,0-.223.314v6.45h-.667V6.217a.333.333,0,0,0-.223-.314A1.665,1.665,0,0,1,17,3ZM13,8h4v2H13Zm0,2.667h4v2H13Zm4-4v.667H13V6.667Zm-7.333-4h4.667V4H9.667Zm2.667,2v8h-.667v-8ZM7.333,10V8H11v2ZM6,6.667h5v.667H7a.333.333,0,0,0-.333.333V10H6Zm4,14.667H2.667V13.079l1.206-2.412H8.794L10,13.079ZM9.539,10.667H11v2h-.461Zm1.127,10.667v-8H21.333v8Z" transform="translate(0)"/>
  </g>
</svg>
