<svg xmlns="http://www.w3.org/2000/svg" width="47.852" height="50" viewBox="0 0 47.852 50">
  <g id="view_document" transform="translate(-11)">
    <circle id="Ellipse_24" data-name="Ellipse 24" cx="23.926" cy="23.926" r="23.926" transform="translate(11 2.148)" fill="#445ea0"/>
    <path id="Path_1046" data-name="Path 1046" d="M61.842,105.465a.49.49,0,0,1-.488-.488V71.247H58.123a.49.49,0,0,0-.488.488v32.671a24.065,24.065,0,0,0,4.6,4.779H89.225a.49.49,0,0,0,.488-.488v-3.231Z" transform="translate(-42.081 -64.289)" fill="#ffaf10"/>
    <path id="Path_1047" data-name="Path 1047" d="M59.49,71.735a.49.49,0,0,1,.488-.488H58.123a.49.49,0,0,0-.488.488v32.671a24.131,24.131,0,0,0,1.855,2.254Z" transform="translate(-42.081 -64.289)" fill="#ef9614"/>
    <path id="Path_1048" data-name="Path 1048" d="M96.871,70.143a.49.49,0,0,1-.488-.488V36H93.371a.49.49,0,0,0-.488.488V73.447a.49.49,0,0,0,.488.488h31.1a.49.49,0,0,0,.488-.488v-3.3Z" transform="translate(-73.887 -32.483)" fill="#ff9518"/>
    <path id="Path_1049" data-name="Path 1049" d="M94.641,73.447V36.486A.49.49,0,0,1,95.129,36H93.371a.49.49,0,0,0-.488.488V73.447a.49.49,0,0,0,.488.488h1.758A.49.49,0,0,1,94.641,73.447Z" transform="translate(-73.887 -32.483)" fill="#ef8318"/>
    <path id="Path_1050" data-name="Path 1050" d="M157.961,37.449a.49.49,0,0,1-.488.488h-31.1a.49.49,0,0,1-.488-.488V.488A.49.49,0,0,1,126.371,0h31.1a.49.49,0,0,1,.488.488Z" transform="translate(-103.664)" fill="#d9eafc"/>
    <path id="Path_1051" data-name="Path 1051" d="M127.82,37.449V.488A.49.49,0,0,1,128.308,0H126.37a.49.49,0,0,0-.488.488V37.449a.49.49,0,0,0,.488.488h1.938A.49.49,0,0,1,127.82,37.449Z" transform="translate(-103.663)" fill="#c3ddf4"/>
    <g id="Group_3617" data-name="Group 3617" transform="translate(42.936 3.496)">
      <path id="Path_1052" data-name="Path 1052" d="M345.555,37.259h-6.793a.732.732,0,0,1,0-1.465h6.793a.732.732,0,0,1,0,1.465Z" transform="translate(-338.029 -35.794)" fill="#db722c"/>
      <path id="Path_1053" data-name="Path 1053" d="M345.555,62.758h-6.793a.732.732,0,0,1,0-1.465h6.793a.732.732,0,0,1,0,1.465Z" transform="translate(-338.029 -58.803)" fill="#db722c"/>
      <path id="Path_1054" data-name="Path 1054" d="M345.555,88.256h-6.793a.732.732,0,0,1,0-1.465h6.793a.732.732,0,0,1,0,1.465Z" transform="translate(-338.029 -81.811)" fill="#db722c"/>
      <path id="Path_1055" data-name="Path 1055" d="M345.555,113.755h-6.793a.732.732,0,0,1,0-1.465h6.793a.732.732,0,0,1,0,1.465Z" transform="translate(-338.029 -104.82)" fill="#db722c"/>
    </g>
    <g id="Group_3618" data-name="Group 3618" transform="translate(25.623 28.348)">
      <path id="Path_1056" data-name="Path 1056" d="M172.912,291.746H161.47a.732.732,0,1,1,0-1.465h11.441a.732.732,0,0,1,0,1.465Z" transform="translate(-160.738 -290.281)" fill="#52bbef"/>
      <path id="Path_1057" data-name="Path 1057" d="M172.912,317.244H161.47a.732.732,0,1,1,0-1.465h11.441a.732.732,0,0,1,0,1.465Z" transform="translate(-160.738 -313.289)" fill="#52bbef"/>
      <path id="Path_1058" data-name="Path 1058" d="M172.912,342.743H161.47a.732.732,0,1,1,0-1.465h11.441a.732.732,0,0,1,0,1.465Z" transform="translate(-160.738 -336.298)" fill="#52bbef"/>
    </g>
    <g id="Group_3619" data-name="Group 3619" transform="translate(25.04 15.311)">
      <path id="Path_1059" data-name="Path 1059" d="M312.013,158.253H301.59a.732.732,0,0,1,0-1.465h10.423a.732.732,0,0,1,0,1.465Z" transform="translate(-286.592 -156.788)" fill="#fe3745"/>
      <path id="Path_1060" data-name="Path 1060" d="M312.013,183.752H301.59a.732.732,0,0,1,0-1.465h10.423a.732.732,0,0,1,0,1.465Z" transform="translate(-286.592 -179.797)" fill="#fe3745"/>
      <path id="Path_1061" data-name="Path 1061" d="M312.013,209.25H301.59a.732.732,0,0,1,0-1.465h10.423a.732.732,0,0,1,0,1.465Z" transform="translate(-286.592 -202.805)" fill="#fe3745"/>
      <path id="Path_1062" data-name="Path 1062" d="M312.013,234.748H301.59a.732.732,0,0,1,0-1.465h10.423a.732.732,0,0,1,0,1.465Z" transform="translate(-286.592 -225.813)" fill="#fe3745"/>
      <path id="Path_1063" data-name="Path 1063" d="M154.77,162.983h2.856a2.856,2.856,0,0,1,2.856-2.856v-2.855A5.711,5.711,0,0,0,154.77,162.983Z" transform="translate(-154.77 -157.225)" fill="#fe3745"/>
    </g>
    <path id="Path_1064" data-name="Path 1064" d="M228.084,142.442V145.3a2.855,2.855,0,0,1,2.856,2.856H233.8A5.711,5.711,0,0,0,228.084,142.442Z" transform="translate(-195.884 -128.532)" fill="#91e0e8"/>
    <g id="Group_3620" data-name="Group 3620" transform="translate(25.04 4.13)">
      <path id="Path_1065" data-name="Path 1065" d="M163.337,215.755a2.856,2.856,0,1,1-5.711,0H154.77a5.711,5.711,0,0,0,11.423,0Z" transform="translate(-154.77 -198.815)" fill="#ffaf10"/>
      <path id="Path_1066" data-name="Path 1066" d="M166.539,49.4v-6.82a.294.294,0,0,0-.293-.293H164.47a.294.294,0,0,0-.293.293V49.4Z" transform="translate(-163.258 -42.29)" fill="#ffaf10"/>
    </g>
    <path id="Path_1067" data-name="Path 1067" d="M205.656,66.547V61.583a.294.294,0,0,0-.293-.293h-1.775a.294.294,0,0,0-.293.293v4.964Z" transform="translate(-173.516 -55.305)" fill="#fe3745"/>
    <path id="Path_1068" data-name="Path 1068" d="M244.772,87.3V84.583a.294.294,0,0,0-.293-.293H242.7a.294.294,0,0,0-.293.293V87.3Z" transform="translate(-208.812 -76.059)" fill="#37c47a"/>
    <path id="Path_1069" data-name="Path 1069" d="M283.889,49.4v-6.82a.294.294,0,0,0-.293-.293H281.82a.294.294,0,0,0-.293.293V49.4Z" transform="translate(-244.108 -38.16)" fill="#91e0e8"/>
    <path id="Path_1070" data-name="Path 1070" d="M344.8,282.207a.293.293,0,0,1,.293-.293h1.324v-3.277a.49.49,0,0,0-.488-.488H341.52a.49.49,0,0,0-.488.488v4.406a.49.49,0,0,0,.488.488H344.8Z" transform="translate(-297.802 -250.985)" fill="#fe3745"/>
    <path id="Path_1071" data-name="Path 1071" d="M381.254,317.882a.49.49,0,0,1-.488.488H378.08a.49.49,0,0,1-.488-.488V315.2a.49.49,0,0,1,.488-.488h2.685a.49.49,0,0,1,.488.488Z" transform="translate(-330.792 -283.975)" fill="#37c47a"/>
    <path id="Path_1072" data-name="Path 1072" d="M167.072,113.755H152.24a.732.732,0,0,1,0-1.465h14.831a.732.732,0,0,1,0,1.465Z" transform="translate(-126.787 -101.324)" fill="#52bbef"/>
  </g>
</svg>
