<svg xmlns="http://www.w3.org/2000/svg" width="19.999" height="20" viewBox="0 0 19.999 20">
  <g id="work_info" transform="translate(-0.5 0.001)">
    <path id="Path_1015" data-name="Path 1015" d="M337.731,155.148a.391.391,0,1,0,.391.39A.39.39,0,0,0,337.731,155.148Zm0,0" transform="translate(-323.682 -149.088)" fill="#002341"/>
    <path id="Path_1016" data-name="Path 1016" d="M156.036,336.84a.391.391,0,1,0,.391.391A.39.39,0,0,0,156.036,336.84Zm0,0" transform="translate(-149.085 -323.683)" fill="#002341"/>
    <path id="Path_1017" data-name="Path 1017" d="M20.014,2.4a.39.39,0,0,0-.366.105L18.029,4.14h-.776L16.4,3.254V2.467l1.6-1.62A.391.391,0,0,0,17.841.2a3.909,3.909,0,0,0-5.021,4.715L9.942,7.795,5.148,2.99V2.047a.391.391,0,0,0-.19-.335L2.2.055a.39.39,0,0,0-.477.059l-1.1,1.1A.391.391,0,0,0,.556,1.7L2.213,4.457a.391.391,0,0,0,.335.19H3.49l4.794,4.8L5.418,12.319A3.909,3.909,0,0,0,.7,17.34a.391.391,0,0,0,.647.15L2.97,15.858h.781l.889.889v.781L3.008,19.148a.391.391,0,0,0,.15.647,3.907,3.907,0,0,0,4.418-1.423,3.863,3.863,0,0,0,.6-3.292l2.3-2.3.527.573-.242.242a.391.391,0,0,0,.553.553l.219-.219L16.487,19.3l.011.012A2.344,2.344,0,0,0,19.813,16l-.012-.012-5.383-4.938.217-.217a.391.391,0,1,0-.553-.552l-.24.24-.574-.527,2.313-2.313A3.908,3.908,0,0,0,20.3,2.658a.39.39,0,0,0-.282-.256ZM3.929,3.981a.387.387,0,0,0-.276-.111H2.769L1.383,1.555,2.056.882,4.367,2.268v.883a.391.391,0,0,0,.114.276l4.908,4.92L8.837,8.9Zm9.936,7.62,5.4,4.955a1.563,1.563,0,0,1-2.21,2.21l-4.964-5.392Zm-.576-.529L11.562,12.8l-.527-.573,1.68-1.68Zm3.3-4.042a3.122,3.122,0,0,1-1-.163.391.391,0,0,0-.4.094L7.462,14.693a.391.391,0,0,0-.094.4,3.128,3.128,0,0,1-2.962,4.123,3.2,3.2,0,0,1-.341-.018l1.241-1.231a.391.391,0,0,0,.116-.277V16.586a.391.391,0,0,0-.114-.276L4.189,15.191a.391.391,0,0,0-.276-.114H2.808a.391.391,0,0,0-.277.116L1.3,16.433a3.16,3.16,0,0,1-.018-.341A3.128,3.128,0,0,1,5.4,13.13a.39.39,0,0,0,.4-.094L13.537,5.3a.391.391,0,0,0,.094-.4A3.128,3.128,0,0,1,16.593.78,3.192,3.192,0,0,1,16.944.8L15.729,2.033a.39.39,0,0,0-.112.274V3.412a.39.39,0,0,0,.11.271L16.805,4.8a.39.39,0,0,0,.281.119h1.105a.39.39,0,0,0,.277-.116L19.7,3.565a3.16,3.16,0,0,1,.018.341A3.128,3.128,0,0,1,16.593,7.03Zm0,0" transform="translate(0 0)" fill="#002341"/>
    <path id="Path_1018" data-name="Path 1018" d="M188.927,183.54l-4.888,4.888a.391.391,0,0,0,.553.552l4.888-4.888a.391.391,0,0,0-.553-.552Zm0,0" transform="translate(-176.259 -176.261)" fill="#002341"/>
    <path id="Path_1019" data-name="Path 1019" d="M348.915,349.249a.391.391,0,1,0,.552-.553l-3.521-3.51a.391.391,0,0,0-.552.553Zm0,0" transform="translate(-331.311 -331.593)" fill="#002341"/>
  </g>
</svg>
