<svg xmlns="http://www.w3.org/2000/svg" width="20" height="20" viewBox="0 0 20 20">
  <g id="change_password" transform="translate(-0.001)">
    <path id="Path_378" data-name="Path 378" d="M250.7,83.537h-.842a4.632,4.632,0,0,0-4.632,4.632h0a4.632,4.632,0,0,0,4,4.589v6.148a1.053,1.053,0,1,0,2.105,0v-.211h.632a.842.842,0,0,0,.842-.842h0a.842.842,0,0,0-.842-.842h-.632v-.842h.632a.842.842,0,0,0,.842-.842h0a.842.842,0,0,0-.842-.842h-.632V92.757a4.632,4.632,0,0,0,4-4.589h0A4.632,4.632,0,0,0,250.7,83.537Zm1.684,3.789a1.263,1.263,0,0,1-1.263,1.263h-1.684a1.263,1.263,0,0,1-1.263-1.263h0a1.263,1.263,0,0,1,1.263-1.263h1.684a1.263,1.263,0,0,1,1.263,1.263Z" transform="translate(-235.642 -80.274)" fill="#ffc248"/>
    <path id="Path_379" data-name="Path 379" d="M19.874,13.979H9.769a1.684,1.684,0,0,1-1.684-1.684V9.768A1.684,1.684,0,0,1,9.769,8.084H19.875a1.684,1.684,0,0,1,1.684,1.684v2.526A1.684,1.684,0,0,1,19.874,13.979Z" transform="translate(-7.768 -7.768)" fill="#84d88b"/>
    <path id="Path_380" data-name="Path 380" d="M250.275,99.33V88.59h-.842a1.263,1.263,0,0,1-1.263-1.263h0a1.263,1.263,0,0,1,1.263-1.263h.842V83.537h-.421a4.632,4.632,0,0,0-4.632,4.632h0a4.632,4.632,0,0,0,4,4.589h0v6.148a1.052,1.052,0,0,0,1.579.911A2.676,2.676,0,0,1,250.275,99.33Z" transform="translate(-235.642 -80.274)" fill="#ffa233"/>
    <path id="Path_381" data-name="Path 381" d="M2.738,6.211a.316.316,0,0,1-.316.316H2a2,2,0,0,1-2-2V2A2,2,0,0,1,2,0H9.58a.316.316,0,1,1,0,.632H2A1.37,1.37,0,0,0,.633,2V4.526A1.37,1.37,0,0,0,2,5.895h.421A.316.316,0,0,1,2.738,6.211Zm6-.316H3.685a.316.316,0,1,0,0,.632H8.738a.316.316,0,0,0,0-.632ZM9.85,9.489a.315.315,0,0,1-.391-.215,4.951,4.951,0,0,1,4.753-6.326h.842l.105,0V1.158a.526.526,0,1,0-1.053,0V2.421a.316.316,0,0,1-.632,0V2A1.37,1.37,0,0,0,12.106.632H10.843a.316.316,0,1,1,0-.632h1.263a2,2,0,0,1,1.482.658,1.158,1.158,0,0,1,2.2.5V6.124a1.158,1.158,0,0,1-2.315.036A.947.947,0,0,0,13.791,8h1.684a.948.948,0,0,0,.947-.947.939.939,0,0,0-.191-.57.316.316,0,0,1,.5-.38,1.579,1.579,0,0,1-1.261,2.53H13.791a1.579,1.579,0,0,1,0-3.158h1.368V3.581l-.105,0h-.842A4.32,4.32,0,0,0,10.066,9.1.316.316,0,0,1,9.85,9.489Zm5.309-3.366V6.105H14.106v.018a.526.526,0,1,0,1.053,0Zm3.935-1.084a4.936,4.936,0,0,0-2.319-1.784.316.316,0,1,0-.22.592,4.317,4.317,0,0,1-1.35,8.361.316.316,0,0,0,.011.631h.011l.141-.007v1.379a.316.316,0,0,0,.316.316h.632a.526.526,0,0,1,0,1.053h-.632a.316.316,0,0,0,0,.632h.632a1.158,1.158,0,0,0,0-2.316H16V12.751a4.949,4.949,0,0,0,3.093-7.712ZM16.317,16.421h-.632a.316.316,0,1,0,0,.632h.632a.526.526,0,0,1,0,1.053h-.632a.316.316,0,0,0-.316.316v.211a.737.737,0,1,1-1.474,0v-5.8c.1.007.21.01.316.01a.316.316,0,0,0,0-.632,4.332,4.332,0,0,1-3.742-2.164.316.316,0,0,0-.547.315,4.969,4.969,0,0,0,3.342,2.387v5.882A1.368,1.368,0,0,0,16,18.737h.32a1.158,1.158,0,0,0,0-2.316ZM5.369,1.684H2a.316.316,0,1,0,0,.632H5.369a.316.316,0,1,0,0-.632Zm0,1.263H2a.316.316,0,1,0,0,.632H5.369a.316.316,0,1,0,0-.632Zm0,1.263H2a.316.316,0,1,0,0,.632H5.369a.316.316,0,1,0,0-.632Z"/>
  </g>
</svg>
