<svg xmlns="http://www.w3.org/2000/svg" width="24.784" height="20" viewBox="0 0 24.784 20">
  <g id="customer_sign" transform="translate(0 -39.824)">
    <g id="Layer_5_64_" transform="translate(0 39.824)">
      <g id="Group_3553" data-name="Group 3553" transform="translate(0 0)">
        <g id="Group_3550" data-name="Group 3550" transform="translate(13.301 0.321)">
          <path id="Path_1026" data-name="Path 1026" d="M290.314,52.431l2.912-3.714a2.107,2.107,0,1,0-3.3-2.59l-2.945,3.757s-.063.08,0,.131l3.1,2.427C290.166,52.514,290.217,52.554,290.314,52.431Z" transform="translate(-283.016 -45.17)" fill="#002341"/>
          <path id="Path_1027" data-name="Path 1027" d="M225.121,140.616a.065.065,0,0,0-.107.016c-.321.454-2.245,3.177-2.971,4.1a2.918,2.918,0,0,0-.311,2.266c.006.02.027.046,0,.088-.089.114-.14.194-.192.259a.341.341,0,0,0,.067.487.359.359,0,0,0,.505-.038c.052-.066.117-.135.207-.249a.075.075,0,0,1,.074-.026,2.924,2.924,0,0,0,2.136-.841c.732-.934,2.934-3.47,3.269-3.856.028-.032.055-.07-.005-.118Z" transform="translate(-221.461 -134.863)" fill="#002341"/>
          <path id="Path_1028" data-name="Path 1028" d="M365.555,117.418a.419.419,0,0,1-.588.071h0a.419.419,0,0,1-.071-.588l2.036-2.6a.419.419,0,0,1,.588-.071h0a.419.419,0,0,1,.071.588Z" transform="translate(-356.198 -110.001)" fill="#002341"/>
        </g>
        <g id="Group_3551" data-name="Group 3551" transform="translate(2.519 6.894)">
          <path id="Path_1029" data-name="Path 1029" d="M53.37,155.262a.321.321,0,0,1-.32.32H42.257a.321.321,0,0,1-.32-.32v-.333a.321.321,0,0,1,.32-.32H53.05a.321.321,0,0,1,.32.32v.333Z" transform="translate(-41.937 -154.609)" fill="#002341"/>
        </g>
        <path id="Path_1030" data-name="Path 1030" d="M156.649,270.105a.321.321,0,0,1-.32.32h-4.194a.321.321,0,0,1-.32-.32v-.273a.321.321,0,0,1,.32-.32h4.194a.321.321,0,0,1,.32.32Z" transform="translate(-142.697 -255.717)" fill="#002341"/>
        <g id="Group_3552" data-name="Group 3552" transform="translate(2.519 3.941)">
          <path id="Path_1031" data-name="Path 1031" d="M53.37,106.089a.321.321,0,0,1-.32.32H42.257a.321.321,0,0,1-.32-.32v-.333a.321.321,0,0,1,.32-.32H53.05a.321.321,0,0,1,.32.32v.333Z" transform="translate(-41.937 -105.436)" fill="#002341"/>
        </g>
        <path id="Path_1032" data-name="Path 1032" d="M15.294,54.192v3.345a1.114,1.114,0,0,1-1.111,1.111H2.288a1.114,1.114,0,0,1-1.111-1.111V42.112A1.114,1.114,0,0,1,2.288,41h11.9a1.114,1.114,0,0,1,1.111,1.111v3.553c0,.34.168.171.246.069.2-.259.573-.688.724-.849a.666.666,0,0,0,.207-.506V40.935a1.114,1.114,0,0,0-1.111-1.111H1.111A1.114,1.114,0,0,0,0,40.935V58.713a1.114,1.114,0,0,0,1.111,1.111H15.359a1.114,1.114,0,0,0,1.111-1.111V53.728c0-.29-.169-.245-.254-.2a4.418,4.418,0,0,1-.679.262C15.453,53.812,15.294,53.848,15.294,54.192Z" transform="translate(0 -39.824)" fill="#002341"/>
      </g>
    </g>
  </g>
</svg>
