<svg xmlns="http://www.w3.org/2000/svg" width="20" height="17.053" viewBox="0 0 20 17.053">
  <g id="logout" transform="translate(0 -37.727)">
    <path id="Path_382" data-name="Path 382" d="M237.461,45.272h-3.285a.273.273,0,0,0-.273.273V61.626a.109.109,0,0,0,.109.109h3.614a.109.109,0,0,0,.109-.109V45.545A.273.273,0,0,0,237.461,45.272Z" transform="translate(-224.766 -7.25)" fill="#b39a7c"/>
    <path id="Path_383" data-name="Path 383" d="M235.365,60.963V46.231a.96.96,0,0,1,.959-.959h-2.149a.273.273,0,0,0-.273.273V61.626a.109.109,0,0,0,.109.109h2.126A.773.773,0,0,1,235.365,60.963Z" transform="translate(-224.765 -7.25)" fill="#a78967"/>
    <path id="Path_384" data-name="Path 384" d="M11.77,108.323,9.012,103.99a.32.32,0,0,1,0-.343l2.757-4.333a.32.32,0,0,1,.27-.148H28a.32.32,0,0,1,.32.32v8.666a.32.32,0,0,1-.32.32H12.04A.32.32,0,0,1,11.77,108.323Z" transform="translate(-8.612 -59.039)" fill="#ed8800"/>
    <path id="Path_385" data-name="Path 385" d="M12.931,99.166H11.221l-2.9,4.557a.179.179,0,0,0,0,.192l2.9,4.557h1.709L9.97,103.819Z" transform="translate(-7.97 -59.039)" fill="#cc7400"/>
    <g id="Group_29" data-name="Group 29" transform="translate(2.527 42.78)">
      <path id="Path_386" data-name="Path 386" d="M69.63,167.706a.316.316,0,0,0,0-.632H67.525a.316.316,0,0,0-.316.316v1.368H65.761l.3-.3a.316.316,0,0,0-.447-.447l-.842.842a.308.308,0,0,0-.028.032l-.006.008a.312.312,0,0,0-.039.074l0,.008a.315.315,0,0,0-.011.039h0a.31.31,0,0,0-.005.041v.01a.311.311,0,0,0,0,.04h0a.308.308,0,0,0,.007.041l0,.009a.32.32,0,0,0,.013.041h0a.312.312,0,0,0,.019.037l0,.007a.3.3,0,0,0,.024.034l0,0,.018.02.842.842a.316.316,0,0,0,.447-.447l-.3-.3h1.448v1.368a.316.316,0,0,0,.316.316H69.63a.316.316,0,1,0,0-.632H67.841V169.39h1.368a.316.316,0,0,0,0-.632H67.841v-1.053H69.63Z" transform="translate(-64.683 -167.074)" fill="#aa6101"/>
      <path id="Path_387" data-name="Path 387" d="M229.389,167.137a.316.316,0,0,0-.442.063l-1.011,1.347-1.01-1.347a.316.316,0,0,0-.505.379l1.121,1.495-1.121,1.495a.316.316,0,1,0,.505.379l1.01-1.347,1.011,1.347a.316.316,0,0,0,.505-.379l-1.121-1.495,1.121-1.495A.316.316,0,0,0,229.389,167.137Z" transform="translate(-220.042 -167.073)" fill="#aa6101"/>
      <path id="Path_388" data-name="Path 388" d="M334.464,167.074a.316.316,0,0,0-.316.316v3.368a.316.316,0,1,0,.632,0V167.39A.316.316,0,0,0,334.464,167.074Z" transform="translate(-323.622 -167.074)" fill="#aa6101"/>
      <path id="Path_389" data-name="Path 389" d="M390.042,167.074h-1.684a.316.316,0,0,0,0,.632h.526v3.053a.316.316,0,1,0,.632,0v-3.053h.526a.316.316,0,0,0,0-.632Z" transform="translate(-375.411 -167.074)" fill="#aa6101"/>
    </g>
    <path id="Path_390" data-name="Path 390" d="M69.63,167.706a.316.316,0,0,0,0-.632H67.525a.316.316,0,0,0-.316.316v1.368H65.761l.3-.3a.316.316,0,0,0-.447-.447l-.842.842a.308.308,0,0,0-.028.032l-.006.008a.312.312,0,0,0-.039.074l0,.008a.316.316,0,0,0-.011.039h0a.31.31,0,0,0-.005.041v.01a.311.311,0,0,0,0,.04h0a.308.308,0,0,0,.007.041l0,.009a.315.315,0,0,0,.013.041h0a.312.312,0,0,0,.019.037l0,.007a.3.3,0,0,0,.024.034l0,0,.018.02.842.842a.316.316,0,0,0,.447-.447l-.3-.3h1.448v1.368a.316.316,0,0,0,.316.316H69.63a.316.316,0,1,0,0-.632H67.841V169.39h1.368a.316.316,0,0,0,0-.632H67.841v-1.053H69.63Z" transform="translate(-62.156 -124.294)"/>
    <path id="Path_391" data-name="Path 391" d="M226.926,167.2a.316.316,0,0,0-.505.379l1.121,1.495-1.121,1.495a.316.316,0,1,0,.505.379l1.01-1.347,1.011,1.347a.316.316,0,0,0,.505-.379l-1.121-1.495,1.121-1.495a.316.316,0,0,0-.505-.379l-1.011,1.347Z" transform="translate(-217.515 -124.293)"/>
    <path id="Path_392" data-name="Path 392" d="M334.464,171.074a.316.316,0,0,0,.316-.316V167.39a.316.316,0,1,0-.632,0v3.368A.316.316,0,0,0,334.464,171.074Z" transform="translate(-321.095 -124.294)"/>
    <path id="Path_393" data-name="Path 393" d="M388.358,167.706h.526v3.053a.316.316,0,1,0,.632,0v-3.053h.526a.316.316,0,0,0,0-.632h-1.684a.316.316,0,1,0,0,.632Z" transform="translate(-372.884 -124.294)"/>
    <path id="Path_394" data-name="Path 394" d="M19.684,39.832H13.263V38.043a.316.316,0,0,0-.316-.316H9.158a.316.316,0,0,0-.316.316v1.789H3.263A.316.316,0,0,0,3,39.979L.05,44.61a.316.316,0,0,0,0,.339L3,49.581a.316.316,0,0,0,.266.146H8.842v4.737a.316.316,0,0,0,.316.316h3.789a.316.316,0,0,0,.316-.316V49.727h6.421A.316.316,0,0,0,20,49.411V40.148A.316.316,0,0,0,19.684,39.832ZM12.632,54.148H9.474V49.727h1.895V51.1a.316.316,0,1,0,.632,0V49.727h.632v4.421ZM19.369,49.1H3.437L.69,44.78l2.746-4.316h6.5a.316.316,0,1,0,0-.632H9.474V38.359h3.158v1.474H11.188a.316.316,0,0,0,0,.632h8.181V49.1Z" transform="translate(0)"/>
  </g>
</svg>
