<svg xmlns="http://www.w3.org/2000/svg" width="20" height="20" viewBox="0 0 20 20">
  <g id="mail_service_report" transform="translate(-5045 -6154)">
    <path id="Path_801" data-name="Path 801" d="M30.823,16l-1.045.936a.667.667,0,0,1-.889,0L27.843,16,23,20.333H35.667Z" transform="translate(5029 6142.667)" fill="#ffa733"/>
    <path id="Path_802" data-name="Path 802" d="M23,3v8.667l4.843-4.333Z" transform="translate(5029 6151.333)" fill="#ff9811"/>
    <path id="Path_803" data-name="Path 803" d="M51.313,11.667V3L46.47,7.333Z" transform="translate(5013.354 6151.333)" fill="#ff9811"/>
    <path id="Path_804" data-name="Path 804" d="M27.843,7.333l1.045.936a.667.667,0,0,0,.889,0l1.045-.936L35.667,3H23Z" transform="translate(5029 6151.333)" fill="#ffb655"/>
    <path id="Path_805" data-name="Path 805" d="M26.47,39.333l4.843,4.333V35Z" transform="translate(5026.687 6130)" fill="#ff9811"/>
    <path id="Path_806" data-name="Path 806" d="M3,35v8.667l4.843-4.333Z" transform="translate(5042.333 6130)" fill="#ff9811"/>
    <path id="Path_807" data-name="Path 807" d="M10.823,48l-1.045.936a.667.667,0,0,1-.889,0L7.843,48,3,52.333H15.667Z" transform="translate(5042.333 6121.333)" fill="#ffa733"/>
    <path id="Path_808" data-name="Path 808" d="M7.843,39.333l1.045.936a.667.667,0,0,0,.889,0l1.045-.936L15.667,35H3Z" transform="translate(5042.333 6130)" fill="#ffb655"/>
    <path id="Path_809" data-name="Path 809" d="M32.667,25H24.118L23,26H35.667l-1.678-1.5a1.99,1.99,0,0,1-1.322.5Z" transform="translate(5029 6137)" fill="#ff9811"/>
    <path id="Path_810" data-name="Path 810" d="M23,26v1l1.118-1Z" transform="translate(5029 6136)" fill="#cc7400"/>
    <path id="Path_811" data-name="Path 811" d="M56.643,3.895V8.667a1.993,1.993,0,0,1-.678,1.5l1.678,1.5V3Z" transform="translate(5007.023 6151.333)" fill="#ee8700"/>
    <path id="Path_812" data-name="Path 812" d="M27.843,7.333,23,3v7.667h1.118Z" transform="translate(5029 6151.333)" fill="#ee8700"/>
    <path id="Path_813" data-name="Path 813" d="M12.667,57H4.118L3,58H15.667l-1.678-1.5A1.99,1.99,0,0,1,12.667,57Z" transform="translate(5042.333 6115.667)" fill="#ff9811"/>
    <path id="Path_814" data-name="Path 814" d="M3,58v1l1.118-1Z" transform="translate(5042.333 6114.667)" fill="#cc7400"/>
    <path id="Path_815" data-name="Path 815" d="M36.643,35.895v4.772a1.993,1.993,0,0,1-.678,1.5l1.678,1.5V35Z" transform="translate(5020.356 6130)" fill="#ee8700"/>
    <path id="Path_816" data-name="Path 816" d="M8.333,20.667h-4a.333.333,0,1,1,0-.667h4a.333.333,0,1,1,0,.667Z" transform="translate(5041.667 6140)" fill="#231f20"/>
    <path id="Path_817" data-name="Path 817" d="M11.333,24.667h-4a.333.333,0,0,1,0-.667h4a.333.333,0,0,1,0,.667Z" transform="translate(5039.667 6137.333)" fill="#231f20"/>
    <path id="Path_818" data-name="Path 818" d="M2.667,24.667H2.333a.333.333,0,0,1,0-.667h.333a.333.333,0,0,1,0,.667Z" transform="translate(5043 6137.333)" fill="#231f20"/>
    <path id="Path_819" data-name="Path 819" d="M7.667,12.667H7.333a.333.333,0,0,1,0-.667h.333a.333.333,0,1,1,0,.667Z" transform="translate(5039.667 6145.333)" fill="#231f20"/>
    <path id="Path_820" data-name="Path 820" d="M12.667,16h-.333a.333.333,0,1,0,0,.667h.333a.333.333,0,0,0,0-.667Z" transform="translate(5036.333 6142.667)" fill="#231f20"/>
    <path id="Path_821" data-name="Path 821" d="M13.667,12.667a.333.333,0,0,0,0-.667H11.333a.333.333,0,1,0,0,.667Z" transform="translate(5037 6145.333)" fill="#231f20"/>
    <path id="Path_822" data-name="Path 822" d="M31.667,2H19a.333.333,0,0,0-.333.333V4h-1a.333.333,0,1,0,0,.667h1v2H17.333a.333.333,0,0,0,0,.667h1.333V11a.333.333,0,0,0,.333.333H31.667A.333.333,0,0,0,32,11V2.333A.333.333,0,0,0,31.667,2Zm-.872.667L25.556,7.354a.333.333,0,0,1-.445,0L19.872,2.667ZM19.333,7.333h1a.333.333,0,1,0,0-.667h-1V3.079l4.01,3.588-4.01,3.588Zm.539,3.333,3.971-3.553.823.737a1,1,0,0,0,1.333,0l.823-.737,3.971,3.553Zm11.461-.412-4.01-3.588,4.01-3.588Z" transform="translate(5033 6152)" fill="#231f20"/>
    <path id="Path_823" data-name="Path 823" d="M13.333,8.667h.333a.333.333,0,0,0,0-.667h-.333a.333.333,0,1,0,0,.667Z" transform="translate(5035.667 6148)" fill="#231f20"/>
    <path id="Path_824" data-name="Path 824" d="M49.667,48.667h-.333a.333.333,0,1,1,0-.667h.333a.333.333,0,0,1,0,.667Z" transform="translate(5011.667 6121.333)" fill="#231f20"/>
    <path id="Path_825" data-name="Path 825" d="M44.667,52.667h-.333a.333.333,0,1,1,0-.667h.333a.333.333,0,0,1,0,.667Z" transform="translate(5015 6118.667)" fill="#231f20"/>
    <path id="Path_826" data-name="Path 826" d="M52,52.667H49.333a.333.333,0,1,1,0-.667H52a.333.333,0,1,1,0,.667Z" transform="translate(5011.667 6118.667)" fill="#231f20"/>
    <path id="Path_827" data-name="Path 827" d="M47.333,56.667h-4a.333.333,0,0,1,0-.667h4a.333.333,0,0,1,0,.667Z" transform="translate(5015.667 6116)" fill="#231f20"/>
    <path id="Path_828" data-name="Path 828" d="M59.667,56.667h-.333a.333.333,0,0,1,0-.667h.333a.333.333,0,1,1,0,.667Z" transform="translate(5005 6116)" fill="#231f20"/>
    <path id="Path_829" data-name="Path 829" d="M54.667,44.667h-.333a.333.333,0,1,1,0-.667h.333a.333.333,0,0,1,0,.667Z" transform="translate(5008.333 6124)" fill="#231f20"/>
    <path id="Path_830" data-name="Path 830" d="M16.667,38.667H15.333v-2h1a.333.333,0,1,0,0-.667h-1V34.333A.333.333,0,0,0,15,34H2.333A.333.333,0,0,0,2,34.333V43a.333.333,0,0,0,.333.333H15A.333.333,0,0,0,15.333,43V39.333h1.333a.333.333,0,0,0,0-.667Zm-2.539-4L8.889,39.354a.333.333,0,0,1-.445,0L3.206,34.667Zm-11.461.412,4.01,3.588-4.01,3.588Zm.539,7.588,3.971-3.553L8,39.851a1,1,0,0,0,1.333,0l.823-.737,3.971,3.553Zm11.461-.412-4.01-3.588,4.01-3.588v3.588h-1a.333.333,0,0,0,0,.667h1Z" transform="translate(5043 6130.667)" fill="#231f20"/>
    <path id="Path_831" data-name="Path 831" d="M46.667,44H44.333a.333.333,0,1,0,0,.667h2.333a.333.333,0,0,0,0-.667Z" transform="translate(5015 6124)" fill="#231f20"/>
    <path id="Path_832" data-name="Path 832" d="M48.333,40.667h.333a.333.333,0,0,0,0-.667h-.333a.333.333,0,1,0,0,.667Z" transform="translate(5012.333 6126.667)" fill="#231f20"/>
  </g>
</svg>
