<svg xmlns="http://www.w3.org/2000/svg" width="29.946" height="30" viewBox="0 0 29.946 30">
  <g id="request_icon" transform="translate(-6.99 -6.765)">
    <path id="Path_833" data-name="Path 833" d="M24.118,53.493a.966.966,0,0,1-.053-.108l0-.009a1.041,1.041,0,0,1-.037-.107l-.135.078a.95.95,0,0,1-1.3-.337L15.853,41.4a.941.941,0,0,1,.355-1.287l.14-.081c-.013-.02-.027-.04-.039-.061l-3.266-5.656a.978.978,0,0,1-.061-.128l-1.261.725A5.334,5.334,0,0,0,9.708,42.2l9.115,15.708a5.384,5.384,0,0,0,7.35,1.907l1.2-.688Z" transform="translate(-1.761 -24.026)" fill="#a4c9ff"/>
    <path id="Path_834" data-name="Path 834" d="M135.331,164.412l3.018,5.228a1.237,1.237,0,0,1-.453,1.69l-3.039,1.755a.99.99,0,0,1-1.352-.362l-3.266-5.656a.99.99,0,0,1,.362-1.352l3.039-1.755A1.237,1.237,0,0,1,135.331,164.412Z" transform="translate(-107.882 -137.598)" fill="#a4c9ff"/>
    <path id="Path_835" data-name="Path 835" d="M45.827,9.388l3.018,5.228a1.237,1.237,0,0,1-.453,1.69L45.353,18.06A.99.99,0,0,1,44,17.7l-3.266-5.657a.99.99,0,0,1,.362-1.352l3.039-1.755a1.237,1.237,0,0,1,1.69.453Z" transform="translate(-29.453 -1.756)" fill="#a4c9ff"/>
    <g id="Group_3503" data-name="Group 3503" transform="translate(6.99 6.765)">
      <path id="Path_836" data-name="Path 836" d="M132.614,171.716a1.243,1.243,0,0,1-.322-.043,1.229,1.229,0,0,1-.751-.576l-3.266-5.656a1.239,1.239,0,0,1,.453-1.69L131.767,162a1.487,1.487,0,0,1,2.028.544l3.018,5.228a1.485,1.485,0,0,1-.543,2.028l-3.039,1.755A1.23,1.23,0,0,1,132.614,171.716Zm-.106-9.425a.985.985,0,0,0-.493.132l-3.039,1.755a.743.743,0,0,0-.272,1.014l3.266,5.656a.742.742,0,0,0,1.014.272l3.039-1.755a.99.99,0,0,0,.362-1.352l-3.018-5.228A.991.991,0,0,0,132.508,162.292Z" transform="translate(-113.122 -142.614)" fill="#3762cc"/>
      <path id="Path_837" data-name="Path 837" d="M43.105,16.684a1.238,1.238,0,0,1-1.074-.618l-3.266-5.657a1.237,1.237,0,0,1,.453-1.69l3.039-1.755a1.485,1.485,0,0,1,2.028.544L47.3,12.736a1.485,1.485,0,0,1-.543,2.028l-3.039,1.755A1.231,1.231,0,0,1,43.105,16.684ZM43,7.26a.984.984,0,0,0-.493.133L39.466,9.148a.743.743,0,0,0-.272,1.014l3.266,5.657a.743.743,0,0,0,1.014.272l3.039-1.755a.99.99,0,0,0,.362-1.352L43.858,7.755A.993.993,0,0,0,43,7.26Z" transform="translate(-34.688 -6.765)" fill="#3762cc"/>
      <path id="Path_838" data-name="Path 838" d="M132.614,171.716a1.243,1.243,0,0,1-.322-.043,1.229,1.229,0,0,1-.751-.576l-3.266-5.656a1.239,1.239,0,0,1,.453-1.69L131.767,162a1.487,1.487,0,0,1,2.028.544l3.018,5.228a1.485,1.485,0,0,1-.543,2.028l-3.039,1.755A1.23,1.23,0,0,1,132.614,171.716Zm-.106-9.425a.985.985,0,0,0-.493.132l-3.039,1.755a.743.743,0,0,0-.272,1.014l3.266,5.656a.742.742,0,0,0,1.014.272l3.039-1.755a.99.99,0,0,0,.362-1.352l-3.018-5.228A.991.991,0,0,0,132.508,162.292Z" transform="translate(-113.122 -142.614)" fill="#3762cc"/>
      <path id="Path_839" data-name="Path 839" d="M43.105,16.684a1.238,1.238,0,0,1-1.074-.618l-3.266-5.657a1.237,1.237,0,0,1,.453-1.69l3.039-1.755a1.485,1.485,0,0,1,2.028.544L47.3,12.736a1.485,1.485,0,0,1-.543,2.028l-3.039,1.755A1.231,1.231,0,0,1,43.105,16.684ZM43,7.26a.984.984,0,0,0-.493.133L39.466,9.148a.743.743,0,0,0-.272,1.014l3.266,5.657a.743.743,0,0,0,1.014.272l3.039-1.755a.99.99,0,0,0,.362-1.352L43.858,7.755A.993.993,0,0,0,43,7.26Z" transform="translate(-34.688 -6.765)" fill="#3762cc"/>
      <path id="Path_840" data-name="Path 840" d="M132.614,171.716a1.243,1.243,0,0,1-.322-.043,1.229,1.229,0,0,1-.751-.576l-3.266-5.656a1.239,1.239,0,0,1,.453-1.69L131.767,162a1.487,1.487,0,0,1,2.028.544l3.018,5.228a1.485,1.485,0,0,1-.543,2.028l-3.039,1.755A1.23,1.23,0,0,1,132.614,171.716Zm-.106-9.425a.985.985,0,0,0-.493.132l-3.039,1.755a.743.743,0,0,0-.272,1.014l3.266,5.656a.742.742,0,0,0,1.014.272l3.039-1.755a.99.99,0,0,0,.362-1.352l-3.018-5.228A.991.991,0,0,0,132.508,162.292Z" transform="translate(-113.122 -142.614)" fill="#3762cc"/>
      <path id="Path_841" data-name="Path 841" d="M43.105,16.684a1.238,1.238,0,0,1-1.074-.618l-3.266-5.657a1.237,1.237,0,0,1,.453-1.69l3.039-1.755a1.485,1.485,0,0,1,2.028.544L47.3,12.736a1.485,1.485,0,0,1-.543,2.028l-3.039,1.755A1.231,1.231,0,0,1,43.105,16.684ZM43,7.26a.984.984,0,0,0-.493.133L39.466,9.148a.743.743,0,0,0-.272,1.014l3.266,5.657a.743.743,0,0,0,1.014.272l3.039-1.755a.99.99,0,0,0,.362-1.352L43.858,7.755A.993.993,0,0,0,43,7.26Z" transform="translate(-34.688 -6.765)" fill="#3762cc"/>
      <path id="Path_842" data-name="Path 842" d="M21.691,59.036a5.578,5.578,0,0,1-4.843-2.759L7.733,40.569a5.47,5.47,0,0,1-.552-4.188A5.627,5.627,0,0,1,9.837,32.94l1.261-.725a.247.247,0,0,1,.353.122.747.747,0,0,0,.046.1l3.266,5.657c.008.014.017.027.026.041a.253.253,0,0,1,.038.2.25.25,0,0,1-.116.162l-.14.081a.7.7,0,0,0-.332.43.676.676,0,0,0,.068.518l6.739,11.614a.7.7,0,0,0,.96.246l.135-.078a.247.247,0,0,1,.361.147.806.806,0,0,0,.029.082.72.72,0,0,0,.042.087l3.252,5.632a.248.248,0,0,1-.091.338l-1.2.688a5.7,5.7,0,0,1-2.844.761ZM11.121,32.772l-1.037.6a5.136,5.136,0,0,0-2.424,3.14,4.978,4.978,0,0,0,.5,3.812l9.115,15.708a5.143,5.143,0,0,0,7.012,1.817l.982-.565-3.128-5.418h0a1.2,1.2,0,0,1-1.526-.482L13.878,39.766a1.168,1.168,0,0,1-.118-.894,1.193,1.193,0,0,1,.488-.684Z" transform="translate(-6.99 -29.036)" fill="#3762cc"/>
    </g>
    <path id="Path_843" data-name="Path 843" d="M145.666,22.112H135.8a1.879,1.879,0,0,0-1.879,1.879V31.3a.272.272,0,0,1,0,.033l-.417,3.341a.268.268,0,0,0,.322.3l2.072-.439a.272.272,0,0,1,.056-.006h9.714a1.879,1.879,0,0,0,1.879-1.879V23.991A1.879,1.879,0,0,0,145.666,22.112Z" transform="translate(-110.856 -13.448)" fill="#4671c6"/>
    <path id="Path_844" data-name="Path 844" d="M132.017,33.469a.516.516,0,0,1-.512-.58l.417-3.341V22.237a2.128,2.128,0,0,1,2.126-2.126h9.866a2.129,2.129,0,0,1,2.126,2.126v8.655a2.128,2.128,0,0,1-2.126,2.126H134.2l-2.076.44A.514.514,0,0,1,132.017,33.469Zm2.031-12.863a1.633,1.633,0,0,0-1.631,1.631v7.309a.537.537,0,0,1,0,.063L132,32.951a.021.021,0,0,0,.025.023l2.072-.439a.5.5,0,0,1,.107-.011h9.714a1.633,1.633,0,0,0,1.631-1.631V22.237a1.633,1.633,0,0,0-1.631-1.631Z" transform="translate(-109.104 -11.695)" fill="#3762cc"/>
    <circle id="Ellipse_19" data-name="Ellipse 19" cx="5.001" cy="5.001" r="5.001" transform="translate(24.829 9.971)" fill="#f9a7a7"/>
    <path id="Path_845" data-name="Path 845" d="M180.709,85.57a.248.248,0,0,1-.247-.247.677.677,0,0,0-.215-.478,1.171,1.171,0,0,0-.492-.284,1.408,1.408,0,0,0-.412-.054h-.361a1.405,1.405,0,0,0-.412.054,1.171,1.171,0,0,0-.492.284.677.677,0,0,0-.215.478.247.247,0,1,1-.495,0,1.177,1.177,0,0,1,.358-.826,1.668,1.668,0,0,1,.7-.409,1.892,1.892,0,0,1,.556-.075h.361a1.9,1.9,0,0,1,.556.075,1.666,1.666,0,0,1,.7.409,1.177,1.177,0,0,1,.358.826A.247.247,0,0,1,180.709,85.57Z" transform="translate(-149.296 -67.69)" fill="#3762cc"/>
    <path id="Path_846" data-name="Path 846" d="M198.532,61.892a.247.247,0,0,1-.105-.471l2.32-1.089a.247.247,0,0,1,.21.448l-2.32,1.089A.246.246,0,0,1,198.532,61.892Z" transform="translate(-167.624 -46.918)" fill="#3762cc"/>
    <path id="Path_847" data-name="Path 847" d="M163.738,61.893a.247.247,0,0,1-.1-.023l-2.32-1.089a.247.247,0,1,1,.21-.448l2.32,1.089a.247.247,0,0,1-.105.471Z" transform="translate(-135.102 -46.918)" fill="#3762cc"/>
    <path id="Path_848" data-name="Path 848" d="M202.474,34.276a.309.309,0,0,1-.219-.528l.56-.56-.508-.508a.309.309,0,1,1,.437-.437l.516.516a.608.608,0,0,1,0,.86l-.568.568A.309.309,0,0,1,202.474,34.276Zm.349-1.08h0Z" transform="translate(-171.024 -22.245)" fill="#ffea92"/>
    <path id="Path_849" data-name="Path 849" d="M208.448,28.176a.606.606,0,0,1-.43-.178l-.516-.516a.309.309,0,1,1,.437-.437l.508.508.56-.56a.309.309,0,1,1,.438.437l-.568.568A.607.607,0,0,1,208.448,28.176Z" transform="translate(-175.622 -17.646)" fill="#ffea92"/>
    <path id="Path_850" data-name="Path 850" d="M207.109,44.934a.309.309,0,0,1-.219-.528l.568-.568a.608.608,0,0,1,.859,0l.516.516a.309.309,0,1,1-.438.437l-.508-.508-.56.56A.308.308,0,0,1,207.109,44.934Z" transform="translate(-175.085 -32.33)" fill="#ffea92"/>
    <path id="Path_851" data-name="Path 851" d="M219.831,33.662a.308.308,0,0,1-.219-.091l-.516-.516a.608.608,0,0,1,0-.86l.568-.568a.309.309,0,1,1,.437.437l-.56.56.508.508a.31.31,0,0,1-.219.528Z" transform="translate(-185.704 -21.707)" fill="#ffea92"/>
  </g>
</svg>
