<svg xmlns="http://www.w3.org/2000/svg" width="37.2" height="33" viewBox="0 0 37.2 33">
  <g id="service_center" transform="translate(0)">
    <path id="Path_722" data-name="Path 722" d="M42.079,10.4,41.6,8H10.4l-.48,2.4L8,20a3,3,0,1,0,6,0,3,3,0,0,0,6,0,3,3,0,0,0,6,0,3,3,0,1,0,6,0,3,3,0,1,0,6,0,3,3,0,1,0,6,0Zm0,0" transform="translate(-7.4 -7.4)" fill="#c3e0f6"/>
    <g id="Group_3240" data-name="Group 3240" transform="translate(0 0)">
      <path id="Path_723" data-name="Path 723" d="M224.6,352a.6.6,0,0,0-.6.6v1.2a.6.6,0,1,0,1.2,0v-1.2A.6.6,0,0,0,224.6,352Zm0,0" transform="translate(-207.2 -325.6)" fill="#4b7493"/>
      <path id="Path_724" data-name="Path 724" d="M37.2,12.6a.612.612,0,0,0-.012-.12l-2.4-12A.6.6,0,0,0,34.2,0H3a.6.6,0,0,0-.588.48l-2.4,12A.612.612,0,0,0,0,12.6a3.6,3.6,0,0,0,2.4,3.39V32.4A.6.6,0,0,0,3,33H34.2a.6.6,0,0,0,.6-.6V15.99a3.6,3.6,0,0,0,2.4-3.39ZM33.709,1.2l.24,1.2H3.251l.24-1.2ZM16.2,31.8V24.6H21v7.2Zm17.4,0H22.2V24a.6.6,0,0,0-.6-.6h-6a.6.6,0,0,0-.6.6v7.8H3.6V16.2a3.6,3.6,0,0,0,3-1.612,3.6,3.6,0,0,0,6,0,3.6,3.6,0,0,0,6,0,3.6,3.6,0,0,0,6,0,3.6,3.6,0,0,0,6,0,3.6,3.6,0,0,0,3,1.612Zm0-16.8a2.4,2.4,0,0,1-2.4-2.4.6.6,0,1,0-1.2,0,2.4,2.4,0,1,1-4.8,0,.6.6,0,0,0-1.2,0,2.4,2.4,0,1,1-4.8,0,.6.6,0,1,0-1.2,0,2.4,2.4,0,0,1-4.8,0,.6.6,0,1,0-1.2,0,2.4,2.4,0,0,1-4.8,0,.6.6,0,1,0-1.2,0,2.4,2.4,0,0,1-4.8.057L3.011,3.6H34.189L36,12.657A2.4,2.4,0,0,1,33.6,15Zm0,0" transform="translate(0 0)" fill="#4b7493"/>
      <path id="Path_725" data-name="Path 725" d="M84.2,224H80.6a.6.6,0,0,0-.6.6v6a.6.6,0,0,0,.6.6h3.6a.6.6,0,0,0,.6-.6v-6A.6.6,0,0,0,84.2,224Zm-.6,6H81.2v-4.8h2.4Zm0,0" transform="translate(-74 -207.2)" fill="#4b7493"/>
    </g>
  </g>
</svg>
