<svg xmlns="http://www.w3.org/2000/svg" width="47.423" height="50" viewBox="0 0 47.423 50">
  <g id="service_eng" transform="translate(0.001 0)">
    <path id="Path_918" data-name="Path 918" d="M29.576,12.8H27.892a.98.98,0,0,1-.942-.731,12.03,12.03,0,0,0-1.173-2.824.96.96,0,0,1,.146-1.16l1.2-1.2a.952.952,0,0,0,0-1.346L24.989,3.4a.952.952,0,0,0-1.346,0l-1.2,1.2a.96.96,0,0,1-1.16.146,12.037,12.037,0,0,0-2.824-1.173.981.981,0,0,1-.731-.942V.952A.952.952,0,0,0,16.773,0h-3.02A.952.952,0,0,0,12.8.952V2.635a.98.98,0,0,1-.731.942A12.04,12.04,0,0,0,9.246,4.751a.96.96,0,0,1-1.16-.146l-1.2-1.2a.952.952,0,0,0-1.346,0L3.4,5.539a.952.952,0,0,0,0,1.346l1.2,1.2a.96.96,0,0,1,.146,1.16,12.037,12.037,0,0,0-1.173,2.824.98.98,0,0,1-.942.731H.951A.951.951,0,0,0,0,13.754v3.02a.952.952,0,0,0,.952.952H2.635a.98.98,0,0,1,.942.731A12.03,12.03,0,0,0,4.75,21.281a.96.96,0,0,1-.146,1.16l-1.2,1.2a.952.952,0,0,0,0,1.346l2.136,2.136a.952.952,0,0,0,1.346,0l1.2-1.2a.96.96,0,0,1,1.16-.145,12.053,12.053,0,0,0,2.824,1.173.98.98,0,0,1,.731.942v1.683a.952.952,0,0,0,.952.952h3.02a.952.952,0,0,0,.952-.952V27.893a.98.98,0,0,1,.731-.942,12.047,12.047,0,0,0,2.824-1.173.96.96,0,0,1,1.16.145l1.2,1.2a.952.952,0,0,0,1.346,0l2.136-2.136a.951.951,0,0,0,0-1.346l-1.2-1.2a.96.96,0,0,1-.145-1.16,12.013,12.013,0,0,0,1.173-2.824.98.98,0,0,1,.942-.731h1.683a.952.952,0,0,0,.952-.952v-3.02a.952.952,0,0,0-.952-.952ZM15.263,21.621a6.357,6.357,0,1,1,6.357-6.357A6.357,6.357,0,0,1,15.263,21.621Zm0,0" fill="#8ebac5"/>
    <path id="Path_919" data-name="Path 919" d="M233.978,277.466l-2.718-5.383v-5.891h-8.383v5.891l-2.718,5.383Zm0,0" transform="translate(-198.66 -240.196)" fill="#bb5d4c"/>
    <path id="Path_920" data-name="Path 920" d="M302.922,266.191v11.274h5.736l-2.718-5.383v-5.891Zm0,0" transform="translate(-273.34 -240.195)" fill="#a44f3e"/>
    <path id="Path_921" data-name="Path 921" d="M209.174,98.551h-.532V96.433a7.275,7.275,0,0,0-2.464-5.528,7.991,7.991,0,0,0-10.68,0,7.275,7.275,0,0,0-2.464,5.528v2.118H192.5a1.412,1.412,0,0,0-1.412,1.412v1.565a1.412,1.412,0,0,0,1.412,1.412h.534A7.261,7.261,0,0,0,195.5,108.3a7.991,7.991,0,0,0,10.68,0,7.261,7.261,0,0,0,2.461-5.363h.534a1.412,1.412,0,0,0,1.412-1.412V99.964a1.412,1.412,0,0,0-1.412-1.412Zm0,0" transform="translate(-172.429 -80.181)" fill="#bb5d4c"/>
    <path id="Path_922" data-name="Path 922" d="M311.777,112.714h-.532V110.6a7.275,7.275,0,0,0-2.464-5.528c-.2-.176-.424-.348-.656-.513v13.812a7.261,7.261,0,0,1-2.461,5.363,9.058,9.058,0,0,1-.865.657,8.257,8.257,0,0,0,3.984-1.92,7.26,7.26,0,0,0,2.461-5.362h.534a1.412,1.412,0,0,0,1.412-1.412v-1.565a1.412,1.412,0,0,0-1.412-1.412Zm0,0" transform="translate(-275.032 -94.344)" fill="#a44f3e"/>
    <path id="Path_923" data-name="Path 923" d="M204.486,64.727h-.817a8.989,8.989,0,0,0-8.989,8.989V76.3h18.795V73.715a8.989,8.989,0,0,0-8.989-8.989Zm0,0" transform="translate(-175.669 -58.406)" fill="#ff9838"/>
    <path id="Path_924" data-name="Path 924" d="M277.11,64.727h-.817a9.041,9.041,0,0,0-1.129.071,8.99,8.99,0,0,1,7.849,8.917V76.3H286.1V73.715A8.989,8.989,0,0,0,277.11,64.727Zm0,0" transform="translate(-248.293 -58.406)" fill="#ff8709"/>
    <path id="Path_925" data-name="Path 925" d="M199.075,172.681H179.7a1.3,1.3,0,1,1,0-2.6h19.371a1.3,1.3,0,1,1,0,2.6Zm0,0" transform="translate(-160.981 -153.469)" fill="#ff8709"/>
    <path id="Path_926" data-name="Path 926" d="M128.464,328.281l-9.055-1.761c0,2.315-4.191,4.192-4.191,4.192s-4.192-1.876-4.192-4.192l-9.055,1.761c-3.419,1.007-5.767,2.793-5.767,6.358v7.675a2.32,2.32,0,0,0,2.32,2.32h33.388a2.32,2.32,0,0,0,2.32-2.32v-7.675c0-3.564-2.348-5.351-5.767-6.358Zm0,0" transform="translate(-86.809 -294.633)" fill="#deecf1"/>
    <path id="Path_927" data-name="Path 927" d="M443.5,350.609a5.725,5.725,0,0,1,1.094,3.553V366.37h.7a2.32,2.32,0,0,0,2.32-2.32v-7.675c0-2.954-1.614-4.686-4.112-5.766Zm0,0" transform="translate(-400.193 -316.37)" fill="#a8d3d8"/>
    <path id="Path_928" data-name="Path 928" d="M216.632,326.52l-3.394.66c.2,1.88,1.871,3.581,3.592,4.86a1.486,1.486,0,0,0,1.649.077l2.344-1.405s-4.191-1.877-4.191-4.192Zm0,0" transform="translate(-192.414 -294.633)" fill="#8ebac5"/>
    <path id="Path_929" data-name="Path 929" d="M295.1,326.52c0,2.315-4.192,4.192-4.192,4.192l2.344,1.405a1.485,1.485,0,0,0,1.649-.077c1.721-1.279,3.39-2.979,3.592-4.86Zm0,0" transform="translate(-262.498 -294.633)" fill="#8ebac5"/>
    <path id="Path_930" data-name="Path 930" d="M142.445,334.806l.505,1.689a31.336,31.336,0,0,1,1.242,8.735v5.5h12.751s0-2.622,0-4.556a6.213,6.213,0,0,0-1.131-3.576c-2.114-3.005-6.453-9.322-6.453-9.322l-4.855.944a12.254,12.254,0,0,0-2.059.584Zm0,0" transform="translate(-128.535 -300.731)" fill="#ff9838"/>
    <path id="Path_931" data-name="Path 931" d="M305.4,334.806l-.505,1.689a31.321,31.321,0,0,0-1.242,8.735v5.5H290.906s0-2.622,0-4.556a6.213,6.213,0,0,1,1.131-3.576c2.114-3.005,6.453-9.322,6.453-9.322l4.855.944A12.264,12.264,0,0,1,305.4,334.806Zm0,0" transform="translate(-262.498 -300.731)" fill="#ff8709"/>
    <path id="Path_932" data-name="Path 932" d="M332.516,449.454h-4.437a.536.536,0,0,1-.536-.536v-1.512a.536.536,0,0,1,.536-.536h4.437a.536.536,0,0,1,.536.536v1.512A.536.536,0,0,1,332.516,449.454Zm0,0" transform="translate(-295.557 -403.231)" fill="#fff156"/>
  </g>
</svg>
