<svg xmlns="http://www.w3.org/2000/svg" width="49.999" height="50" viewBox="0 0 49.999 50">
  <g id="sos_icon" transform="translate(-0.003)">
    <g id="Group_3604" data-name="Group 3604" transform="translate(0.979 0.977)">
      <g id="Group_3602" data-name="Group 3602" transform="translate(9.464)">
        <path id="Path_1034" data-name="Path 1034" d="M109.026,19.434c3.431,4.988,2.411,6.825.318,8.667-.425.374-.894.748-1.379,1.149-1.941,1.687,1.5,6.5,5.062,10.692,3.69,4.31,7.94,8.439,9.879,6.75.194-.168.384-.334.57-.5,2.447-2.143,4.312-3.651,9.312,1a6.828,6.828,0,0,1,2.38,3.845,22.251,22.251,0,1,0-28.255-33.9,9.284,9.284,0,0,1,2.114,2.3Zm16.218,14.492V28.285a2.123,2.123,0,0,1,4.246,0v5.642a2.123,2.123,0,0,1-4.246,0Z" transform="translate(-106.912 -10)" fill="#f63d53"/>
        <path id="Path_1035" data-name="Path 1035" d="M294.625,177.624v5.642a2.123,2.123,0,0,0,4.246,0v-5.642a2.123,2.123,0,0,0-4.246,0Z" transform="translate(-276.294 -159.339)" fill="#f63d53"/>
      </g>
      <g id="Group_3603" data-name="Group 3603" transform="translate(4.747 6.324)">
        <path id="Path_1036" data-name="Path 1036" d="M65.756,86.533c2.094-1.842,3.113-3.679-.318-8.667a9.284,9.284,0,0,0-2.114-2.3,3.893,3.893,0,0,0-4.717-.03A53.551,53.551,0,0,1,65.756,86.533Z" transform="translate(-58.607 -74.756)" fill="#bccbd3"/>
        <path id="Path_1037" data-name="Path 1037" d="M285.824,362.682c-5-4.65-6.865-3.142-9.312-1a38.388,38.388,0,0,1,10.131,8.553,4.5,4.5,0,0,0,1.561-3.71A6.826,6.826,0,0,0,285.824,362.682Z" transform="translate(-255.232 -331.811)" fill="#bccbd3"/>
      </g>
      <path id="Path_1038" data-name="Path 1038" d="M46.157,120.426a38.389,38.389,0,0,0-10.131-8.553c-.186.163-.375.329-.57.5-1.939,1.689-6.189-2.44-9.879-6.75-3.563-4.191-7-9-5.062-10.692.485-.4.954-.775,1.379-1.149a53.551,53.551,0,0,0-7.149-10.993,27.7,27.7,0,0,0-3.36,2.764c-3.127,2.623-1.252,13.5,8.566,24.947,9.691,11.439,20.259,15,23.323,12.439C44.177,122.156,45.275,121.343,46.157,120.426Z" transform="translate(-9.999 -75.678)" fill="#4ad194"/>
    </g>
    <path id="Path_1039" data-name="Path 1039" d="M43.2,6.8a23.225,23.225,0,0,0-32.91.063,4.552,4.552,0,0,0-2.142-.543c-2.221,0-4.023,1.63-5.613,3.068-.279.253-.543.491-.8.712a5.61,5.61,0,0,0-1.694,3.95,21.975,21.975,0,0,0,2.108,9.806,49.93,49.93,0,0,0,8.039,12.566C18.13,45.8,26.628,50,31.526,50a5.1,5.1,0,0,0,3.355-1.017l.012-.01c.271-.234.561-.472.867-.723,1.8-1.48,3.851-3.158,3.942-5.613,0-.038,0-.076,0-.115A23.226,23.226,0,0,0,43.2,6.8ZM11.752,10.965c1.627,2.366,2.282,4.1,2,5.293a2.907,2.907,0,0,1-.611,1.165,60.094,60.094,0,0,0-5.834-9.01,2.8,2.8,0,0,1,.837-.137C9.313,8.277,10.526,9.181,11.752,10.965ZM34.522,46.74c-.314.258-.611.5-.9.75a3.312,3.312,0,0,1-2.1.557c-4.3,0-12.351-4.031-19.853-12.887A47.973,47.973,0,0,1,3.944,23.094a20.074,20.074,0,0,1-1.957-8.879A3.834,3.834,0,0,1,2.993,11.6L3,11.589c.277-.238.551-.486.841-.748.55-.5,1.13-1.022,1.725-1.466a57.044,57.044,0,0,1,6.1,9.448l-.4.325-.4.326-.019.016c-1.27,1.1-1.186,2.993.251,5.613a41.26,41.26,0,0,0,4.709,6.451c4.369,5.1,7.4,7.479,9.547,7.479a2.567,2.567,0,0,0,1.712-.625l.054-.047a39.371,39.371,0,0,1,8.691,7.28C35.407,46.014,34.962,46.379,34.522,46.74Zm3.228-4.175a3.079,3.079,0,0,1-.6,1.625A41.921,41.921,0,0,0,28.7,37.029a3.589,3.589,0,0,1,2.166-.932c1.206,0,2.772.911,4.788,2.785C37.083,40.249,37.79,41.488,37.75,42.565Zm1.5-2.107a9.749,9.749,0,0,0-2.263-2.995l-.008-.008c-2.429-2.259-4.375-3.312-6.122-3.312-1.882,0-3.2,1.159-4.6,2.386-.15.132-.3.266-.462.4a.605.605,0,0,1-.432.147c-.838,0-3-.883-8.061-6.793a39.461,39.461,0,0,1-4.483-6.122c-.878-1.6-1.135-2.793-.69-3.194l.378-.311c.345-.282.685-.561,1.008-.845l.021-.018A6.007,6.007,0,0,0,15.656,16.7c.424-1.811-.284-3.922-2.294-6.846a12.191,12.191,0,0,0-1.492-1.81,21.274,21.274,0,1,1,27.384,32.41Z" transform="translate(0 0)"/>
    <path id="Path_1040" data-name="Path 1040" d="M165.531,46.509a.977.977,0,0,0-1.245-.6,19.826,19.826,0,0,0-4.179,2.044.977.977,0,1,0,1.058,1.642,17.874,17.874,0,0,1,3.767-1.842A.977.977,0,0,0,165.531,46.509Z" transform="translate(-144.066 -41.377)"/>
    <path id="Path_1041" data-name="Path 1041" d="M229.207,40.213a.984.984,0,0,0,.184-.018l.059-.011a.977.977,0,1,0-.357-1.92l-.069.013a.977.977,0,0,0,.182,1.936Z" transform="translate(-205.94 -34.512)"/>
    <path id="Path_1042" data-name="Path 1042" d="M287.725,165.5a3.1,3.1,0,0,0-3.1,3.1v5.642a3.1,3.1,0,0,0,6.2,0V168.6A3.1,3.1,0,0,0,287.725,165.5Zm1.146,8.741a1.148,1.148,0,0,1-1.146,1.146h0a1.148,1.148,0,0,1-1.146-1.146V168.6a1.146,1.146,0,0,1,2.293,0Z" transform="translate(-256.828 -149.339)"/>
    <path id="Path_1043" data-name="Path 1043" d="M370.619,171.682h0a1.428,1.428,0,1,1,1.237-2.143.977.977,0,0,0,1.692-.976,3.381,3.381,0,1,0-2.929,5.072h0a1.428,1.428,0,1,1-1.237,2.142.977.977,0,1,0-1.691.977,3.381,3.381,0,1,0,2.928-5.072Z" transform="translate(-331.371 -150.576)"/>
    <path id="Path_1044" data-name="Path 1044" d="M199.619,171.682h0a1.428,1.428,0,1,1,1.237-2.143.977.977,0,0,0,1.692-.976,3.381,3.381,0,1,0-2.929,5.072h0a1.428,1.428,0,1,1-1.237,2.142.977.977,0,0,0-1.691.977,3.381,3.381,0,1,0,2.929-5.072Z" transform="translate(-177.071 -150.576)"/>
  </g>
</svg>
