<svg xmlns="http://www.w3.org/2000/svg" width="20" height="29.09" viewBox="0 0 20 29.09">
  <g id="user_manual" transform="translate(0)">
    <path id="Path_333" data-name="Path 333" d="M19.375,26.662H2.318A2.318,2.318,0,0,1,0,24.344V2.318A2.318,2.318,0,0,1,2.318,0H19.375A.625.625,0,0,1,20,.625V26.037a.625.625,0,0,1-.625.625Zm0,0" transform="translate(0 0)" fill="#005ca0"/>
    <path id="Path_334" data-name="Path 334" d="M301.551,0H299.2a.645.645,0,0,1,.645.645V26.017a.645.645,0,0,1-.645.645h2.356a.645.645,0,0,0,.645-.645V.645A.645.645,0,0,0,301.551,0Zm0,0" transform="translate(-282.196)" fill="#005182"/>
    <path id="Path_335" data-name="Path 335" d="M19.375,380.418H2.318A2.318,2.318,0,0,1,0,378.1v-.716a2.318,2.318,0,0,1,2.318-2.318H20v4.727A.625.625,0,0,1,19.375,380.418Zm0,0" transform="translate(0 -353.757)" fill="#fad200"/>
    <path id="Path_336" data-name="Path 336" d="M53.337,397.407H44.189a.44.44,0,0,1,0-.879h9.148a.44.44,0,0,1,0,.879Zm0,0" transform="translate(-41.264 -373.998)" fill="#fab700"/>
    <path id="Path_337" data-name="Path 337" d="M245,397.407h-3.443a.44.44,0,1,1,0-.879H245a.44.44,0,0,1,0,.879Zm0,0" transform="translate(-227.417 -373.998)" fill="#fab700"/>
    <g id="Group_26" data-name="Group 26" transform="translate(2.925 12.547)">
      <path id="Path_338" data-name="Path 338" d="M53.016,224.148a.68.68,0,0,0,.724-.746c.006-.137-.027-.181-.154-.181h-.423c-.176,0-.219-.159-.219-.313s.049-.307.219-.307h.779c.4,0,.5.176.51.472.038.944-.34,1.718-1.411,1.718-1.125,0-1.559-.884-1.559-1.981,0-1.12.412-1.916,1.532-1.976a1.235,1.235,0,0,1,1.372,1c.033.176-.038.329-.318.329-.307,0-.4-.06-.439-.2a.565.565,0,0,0-.615-.488c-.686,0-.779.757-.779,1.334,0,.483.077,1.339.78,1.339Zm0,0" transform="translate(-51.484 -220.832)" fill="#ea9a94"/>
      <path id="Path_339" data-name="Path 339" d="M115.2,224.055a.664.664,0,1,0,1.323,0V221.76c0-.2.181-.253.362-.253s.362.055.362.253v2.228a1.387,1.387,0,1,1-2.772,0V221.76c0-.2.181-.253.362-.253s.362.055.362.253Zm0,0" transform="translate(-110.894 -221.47)" fill="#ea9a94"/>
      <path id="Path_340" data-name="Path 340" d="M176.539,225.168c0,.2-.187.258-.368.258s-.362-.055-.362-.258v-3.4c0-.2.181-.252.362-.252s.368.055.368.252Zm0,0" transform="translate(-168.745 -221.474)" fill="#ea9a94"/>
      <path id="Path_341" data-name="Path 341" d="M201.753,225.74c-.28,0-.538-.071-.538-.488v-2.871c0-.412.258-.483.538-.483h.757c1.081,0,1.52.9,1.52,1.921s-.428,1.921-1.52,1.921Zm.187-3.09v2.333c0,.071.033.093.093.093h.478c.615,0,.774-.719.774-1.257s-.176-1.263-.774-1.263h-.478C201.973,222.557,201.94,222.579,201.94,222.65Zm0,0" transform="translate(-192.708 -221.838)" fill="#ea9a94"/>
      <path id="Path_342" data-name="Path 342" d="M261.159,222.647v.774h1.114c.181,0,.23.165.23.329s-.049.329-.23.329h-1.114v.906c0,.071.028.093.093.093h1.224c.187,0,.231.164.231.329s-.049.329-.231.329h-1.509c-.275,0-.538-.071-.538-.483v-2.876c0-.412.263-.483.538-.483h1.509c.181,0,.231.165.231.329s-.044.329-.231.329h-1.224C261.187,222.553,261.159,222.575,261.159,222.647Zm0,0" transform="translate(-248.558 -221.834)" fill="#ea9a94"/>
    </g>
    <path id="Path_343" data-name="Path 343" d="M43.2,42.731a3.517,3.517,0,1,1-3.517-3.517A3.517,3.517,0,0,1,43.2,42.731Zm0,0" transform="translate(-34.113 -36.986)" fill="#ffded5"/>
    <path id="Path_344" data-name="Path 344" d="M199.721,42.731a3.517,3.517,0,1,1-3.517-3.517A3.517,3.517,0,0,1,199.721,42.731Zm0,0" transform="translate(-181.74 -36.986)" fill="#ffded5"/>
    <path id="Path_345" data-name="Path 345" d="M88.3,39.215a3.541,3.541,0,0,0-.588.05,3.516,3.516,0,0,1,0,6.934,3.517,3.517,0,1,0,.588-6.984Zm0,0" transform="translate(-82.727 -36.987)" fill="#f7c6ba"/>
    <path id="Path_346" data-name="Path 346" d="M244.819,39.215a3.543,3.543,0,0,0-.588.05,3.516,3.516,0,0,1,0,6.934,3.517,3.517,0,1,0,.588-6.984Zm0,0" transform="translate(-230.354 -36.987)" fill="#f7c6ba"/>
    <path id="Path_347" data-name="Path 347" d="M63.486,51.726a.438.438,0,0,1-.311-.129l-1.515-1.514a.44.44,0,0,1,.622-.622l1.2,1.2L67.052,47.1a.44.44,0,0,1,.622.622L63.8,51.6a.438.438,0,0,1-.311.129Zm0,0" transform="translate(-58.036 -44.301)" fill="#1dc2ff"/>
    <path id="Path_348" data-name="Path 348" d="M221.966,69.154l1.256-1.256a.44.44,0,0,0-.622-.622l-1.256,1.256-1.256-1.256a.44.44,0,1,0-.622.622l1.256,1.256-1.256,1.256a.44.44,0,0,0,.622.622l1.256-1.256,1.256,1.256a.44.44,0,0,0,.622-.622Zm0,0" transform="translate(-206.875 -63.332)" fill="#ed500a"/>
    <path id="Path_349" data-name="Path 349" d="M26.759,375.066v3.917a.568.568,0,0,1-.568.568H9.664a2.386,2.386,0,0,0,1.842.867H28.47a.645.645,0,0,0,.645-.645v-4.707H26.759Zm0,0" transform="translate(-9.115 -353.756)" fill="#fab700"/>
    <path id="Path_350" data-name="Path 350" d="M53.4,438.822l-1.465-1.071-1.465,1.071v-4.408H53.4Zm0,0" transform="translate(-47.605 -409.732)" fill="#ff6914"/>
    <path id="Path_351" data-name="Path 351" d="M76.258,434.414v3.337l1.465,1.071v-4.408Zm0,0" transform="translate(-71.925 -409.732)" fill="#ed500a"/>
    <path id="Path_352" data-name="Path 352" d="M38.405,427.558H22.517a.44.44,0,1,1,0-.879H38.405a.44.44,0,1,1,0,.879Zm0,0" transform="translate(-20.823 -402.437)" fill="#fab700"/>
  </g>
</svg>
