<svg xmlns="http://www.w3.org/2000/svg" xmlns:xlink="http://www.w3.org/1999/xlink" width="20" height="20" viewBox="0 0 20 20">
  <defs>
    <linearGradient id="linear-gradient" x1="0.106" y1="0.184" x2="0.935" y2="1" gradientUnits="objectBoundingBox">
      <stop offset="0" stop-color="#ff00e1"/>
      <stop offset="1" stop-color="#0203fe"/>
    </linearGradient>
  </defs>
  <g id="avatar" transform="translate(0)">
    <g id="Group_1" data-name="Group 1" transform="translate(0)">
      <path id="Path_1" data-name="Path 1" d="M17.071,12.929a9.962,9.962,0,0,0-3.8-2.384,5.781,5.781,0,1,0-6.542,0A10.016,10.016,0,0,0,0,20H1.562a8.437,8.437,0,1,1,16.875,0H20A9.935,9.935,0,0,0,17.071,12.929ZM10,10a4.219,4.219,0,1,1,4.219-4.219A4.224,4.224,0,0,1,10,10Z" transform="translate(0)" fill="url(#linear-gradient)"/>
    </g>
  </g>
</svg>
